<ttFont>
          <CharString index="0">
            9 -106 callgsubr
            -9 vhcurveto
            return
          </CharString>
          <CharString index="1">
            hlineto
            -107 callsubr
            return
          </CharString>
          <CharString index="2">
            -100 callgsubr
            -88 55 -68 callsubr
            7 4 3 9 hvcurveto
            return
          </CharString>
          <CharString index="3">
            -3 -102 callgsubr
            return
          </CharString>
          <CharString index="4">
            -92 callgsubr
            -342 vlineto
            -102 callsubr
            return
          </CharString>
          <CharString index="5">
            -90 callsubr
            8 -75 callgsubr
            -8 vhcurveto
            -50 hlineto
            return
          </CharString>
          <CharString index="6">
            hvcurveto
            -4 hlineto
            -96 callsubr
            return
          </CharString>
          <CharString index="7">
            -124 vlineto
            6 callgsubr
            return
          </CharString>
          <CharString index="8">
            -9 4 -98 callgsubr
            return
          </CharString>
          <CharString index="9">
            -97 callsubr
            -153 258 rlineto
            return
          </CharString>
          <CharString index="10">
            -107 callgsubr
            179 -93 callgsubr
            return
          </CharString>
          <CharString index="11">
            225 callgsubr
            -84 -55 -44 -97 hvcurveto
            -100 callsubr
            return
          </CharString>
          <CharString index="12">
            7 -94 callgsubr
            return
          </CharString>
          <CharString index="13">
            -97 callgsubr
            -213 vlineto
            -74 -38 -21 -50 408 callgsubr
            214 -19 callgsubr
            return
          </CharString>
          <CharString index="14">
            rmoveto
            0 callsubr
            -51 202 callsubr
            51 467 callgsubr
            -140 hlineto
            -10 -4 281 callsubr
            20 -24 162 -236 rlineto
            -6 4 4 -4 7 280 callsubr
            4 5 3 -2 3 -2 3 hvcurveto
            return
          </CharString>
          <CharString index="15">
            4 -109 hlineto
            -9 4 -3 7 vhcurveto
            23 hlineto
            8 -96 callgsubr
            232 24 callgsubr
            -33 vlineto
            -55 340 callsubr
            -71 hlineto
            204 callgsubr
            89 172 callgsubr
            163 hlineto
            14 396 callgsubr
            128 -19 callgsubr
            83 -48 callsubr
            return
          </CharString>
          <CharString index="16">
            554 callgsubr
            42 71 hvcurveto
            91 20 vlineto
            79 50 36 90 hvcurveto
            15 476 callsubr
            return
          </CharString>
          <CharString index="17">
            -59 -35 -34 -61 vhcurveto
            -35 hlineto
            -64 -35 35 64 hvcurveto
            102 vlineto
            64 35 35 63 vhcurveto
            46 hlineto
            return
          </CharString>
          <CharString index="18">
            -9 -104 callsubr
            return
          </CharString>
          <CharString index="19">
            hlineto
            -107 callgsubr
            return
          </CharString>
          <CharString index="20">
            7 -96 callgsubr
            return
          </CharString>
          <CharString index="21">
            3 9 hvcurveto
            return
          </CharString>
          <CharString index="22">
            -41 callsubr
            59 33 -9 callgsubr
            return
          </CharString>
          <CharString index="23">
            -62 -28 34 64 hvcurveto
            36 vlineto
            64 27 33 62 vhcurveto
            16 -64 callsubr
            -18 hlineto
            -87 -48 -53 -84 hvcurveto
            -43 vlineto
            return
          </CharString>
          <CharString index="24">
            vlineto
            -88 53 -53 95 vhcurveto
            163 593 callsubr
            8 170 callsubr
            -160 hlineto
            -69 -34 35 65 hvcurveto
            29 -72 callgsubr
            return
          </CharString>
          <CharString index="25">
            rlineto
            -6 3 4 -76 callsubr
            return
          </CharString>
          <CharString index="26">
            -5 124 269 462 callsubr
            89 vlineto
            62 381 callsubr
            79 464 callgsubr
            -62 hvcurveto
            -89 -17 callsubr
            41 -269 rmoveto
            117 callsubr
            -205 hlineto
            -62 -32 36 62 hvcurveto
            77 187 callgsubr
            9 216 callgsubr
            127 58 callsubr
            return
          </CharString>
          <CharString index="27">
            142 callsubr
            -27 8 -22 hvcurveto
            -10 3 6 -5 9 hhcurveto
            20 hlineto
            7 3 4 167 callsubr
            return
          </CharString>
          <CharString index="28">
            hvcurveto
            -19 vlineto
            return
          </CharString>
          <CharString index="29">
            -62 callgsubr
            -178 263 rlineto
            41 hlineto
            72 51 40 91 hvcurveto
            57 callsubr
            282 -92 callgsubr
            -291 vlineto
            -62 -31 -37 -64 vhcurveto
            -5 hlineto
            260 callsubr
            7 hlineto
            45 1 32 17 18 29 rrcurveto
            return
          </CharString>
          <CharString index="30">
            -74 callgsubr
            4 3 9 hvcurveto
            return
          </CharString>
          <CharString index="31">
            -4 8 280 callsubr
            3 6 5 -4 6 -2 2 hvcurveto
            return
          </CharString>
          <CharString index="32">
            19 vlineto
            7 return
          </CharString>
          <CharString index="33">
            -21 callgsubr
            369 callgsubr
            return
          </CharString>
          <CharString index="34">
            -9 4 -3 7 vhcurveto
            26 hlineto
            7 36 callsubr
            return
          </CharString>
          <CharString index="35">
            rmoveto
            9 -4 3 -7 vhcurveto
            -31 hlineto
            -29 callgsubr
            31 -19 callsubr
            return
          </CharString>
          <CharString index="36">
            16 vlineto
            75 -28 38 -73 -73 -25 287 callsubr
            4 -3 10 vhcurveto
            19 -19 callsubr
            15 vlineto
            50 10 20 45 45 10 -21 -50 vhcurveto
            -15 331 callgsubr
            -94 hlineto
            204 callgsubr
            120 172 callgsubr
            150 430 callsubr
            146 279 callsubr
            return
          </CharString>
          <CharString index="37">
            hlineto
            -67 callgsubr
            return
          </CharString>
          <CharString index="38">
            -65 callsubr
            10 return
          </CharString>
          <CharString index="39">
            -53 87 vhcurveto
            -52 callgsubr
            return
          </CharString>
          <CharString index="40">
            -7 -57 callgsubr
            return
          </CharString>
          <CharString index="41">
            377 143 rmoveto
            -63 -40 -35 -63 vhcurveto
            -65 30 callgsubr
            -108 -456 -1 callsubr
            -212 -46 callgsubr
            return
          </CharString>
          <CharString index="42">
            -51 callgsubr
            84 hlineto
            return
          </CharString>
          <CharString index="43">
            hlineto
            9 3 4 7 456 callgsubr
            return
          </CharString>
          <CharString index="44">
            -6 callsubr
            vhcurveto
            return
          </CharString>
          <CharString index="45">
            56 338 hmoveto
            85 callgsubr
            -123 hlineto
            -86 -54 581 callsubr
            54 -54 86 vhcurveto
            4 45 rmoveto
            107 callgsubr
            570 callgsubr
            33 36 61 vhcurveto
            114 48 callsubr
            return
          </CharString>
          <CharString index="46">
            95 callsubr
            21 vlineto
            return
          </CharString>
          <CharString index="47">
            57 33 24 28 14 hvcurveto
            4 -40 hlineto
            -9 4 -3 7 vhcurveto
            29 516 callgsubr
            return
          </CharString>
          <CharString index="48">
            hlineto
            9 4 3 8 hvcurveto
            21 152 callsubr
            -9 vhcurveto
            return
          </CharString>
          <CharString index="49">
            78 callsubr
            30 hlineto
            9 4 5 6 6 hvcurveto
            116 129 90 99 rlineto
            4 -206 hlineto
            -9 4 -3 7 vhcurveto
            25 hlineto
            8 -96 callgsubr
            560 -19 callgsubr
            85 -17 callgsubr
            return
          </CharString>
          <CharString index="50">
            307 rmoveto
            -7 230 callsubr
            273 vlineto
            6 230 callgsubr
            173 hlineto
            62 34 -36 -63 hvcurveto
            -94 vlineto
            -62 -34 -36 -62 vhcurveto
            -194 -307 332 callgsubr
            243 vlineto
            6 230 callgsubr
            158 hlineto
            118 -252 rlineto
            -10 4 5 -2 9 hhcurveto
            510 callsubr
            -4 hvcurveto
            -119 252 rlineto
            4 vlineto
            65 13 41 50 75 vvcurveto
            95 vlineto
            88 -55 54 -86 vhcurveto
            -228 5 callgsubr
            return
          </CharString>
          <CharString index="51">
            vlineto
            -58 callgsubr
            return
          </CharString>
          <CharString index="52">
            vlineto
            -53 callsubr
            return
          </CharString>
          <CharString index="53">
            164 callsubr
            7 return
          </CharString>
          <CharString index="54">
            29 -43 -45 callgsubr
            return
          </CharString>
          <CharString index="55">
            532 callsubr
            -31 -83 callsubr
            return
          </CharString>
          <CharString index="56">
            -125 50 rlineto
            -39 14 -24 18 39 vvcurveto
            23 vlineto
            28 23 32 59 vhcurveto
            157 hlineto
            9 2 3 306 callsubr
            -162 hlineto
            -91 -38 -44 -73 -64 26 -32 68 -26 hvcurveto
            125 -48 rlineto
            44 -16 12 -30 -39 vvcurveto
            -24 vlineto
            -47 -30 -23 -60 vhcurveto
            -169 hlineto
            -9 -2 -3 -7 348 callsubr
            return
          </CharString>
          <CharString index="57">
            25 17 12 40 39 vvcurveto
            86 -41 51 -94 -94 -45 -52 -86 -43 15 -37 30 572 callsubr
            -63 -9 -32 -37 -66 vvcurveto
            -81 vlineto
            -79 45 -40 88 vhcurveto
            51 hlineto
            502 callgsubr
            -109 169 callgsubr
            228 vlineto
            9 -5 3 -7 309 callgsubr
            -30 vlineto
            -54 340 callsubr
            -52 hlineto
            -63 -25 20 55 hvcurveto
            79 vlineto
            55 24 19 63 vhcurveto
            return
          </CharString>
          <CharString index="58">
            76 callgsubr
            -12 30 146 callgsubr
            return
          </CharString>
          <CharString index="59">
            hlineto
            8 4 4 8 hvcurveto
            19 392 callgsubr
            return
          </CharString>
          <CharString index="60">
            280 callgsubr
            -145 -8 callsubr
            -13 99 callsubr
            145 124 callsubr
            return
          </CharString>
          <CharString index="61">
            511 callsubr
            36 hlineto
            63 299 callgsubr
            -102 vlineto
            -64 -34 -35 -63 vhcurveto
            -46 hlineto
            -9 158 callgsubr
            -21 19 callsubr
            return
          </CharString>
          <CharString index="62">
            13 callgsubr
            84 hlineto
            10 -106 callgsubr
            -10 vhcurveto
            return
          </CharString>
          <CharString index="63">
            -102 callsubr
            -87 -54 -53 -88 -1 hvcurveto
            return
          </CharString>
          <CharString index="64">
            -9 -3 -4 -7 -53 callgsubr
            return
          </CharString>
          <CharString index="65">
            19 -24 168 -248 -62 callgsubr
            return
          </CharString>
          <CharString index="66">
            -34 27 71 198 callgsubr
            71 32 27 61 return
          </CharString>
          <CharString index="67">
            -15 callsubr
            452 callsubr
            55 return
          </CharString>
          <CharString index="68">
            3 7 -26 callsubr
            return
          </CharString>
          <CharString index="69">
            -40 callsubr
            -53 547 callgsubr
            return
          </CharString>
          <CharString index="70">
            vlineto
            55 27 29 55 -16 callsubr
            return
          </CharString>
          <CharString index="71">
            83 267 callsubr
            return
          </CharString>
          <CharString index="72">
            vhcurveto
            -37 hlineto
            -64 -33 105 callsubr
            34 35 return
          </CharString>
          <CharString index="73">
            rmoveto
            587 callgsubr
            118 hlineto
            189 callgsubr
            49 vlineto
            208 -349 -97 144 vvcurveto
            50 vlineto
            66 32 36 64 vhcurveto
            103 hlineto
            64 33 -36 -64 hvcurveto
            -25 vlineto
            -8 269 callgsubr
            8 hvcurveto
            28 vlineto
            88 -55 54 -86 vhcurveto
            -116 430 callgsubr
            -55 vlineto
            -197 349 101 -162 vvcurveto
            -42 vlineto
            -65 -33 -36 -64 vhcurveto
            -104 hlineto
            -64 -33 36 64 hvcurveto
            33 vlineto
            9 -4 361 callsubr
            -2 -9 hvcurveto
            endchar
          </CharString>
          <CharString index="74">
            97 465 366 callsubr
            -317 vlineto
            -88 60 -51 86 vhcurveto
            43 hlineto
            8 3 3 8 hvcurveto
            23 275 callsubr
            -62 -37 34 62 hvcurveto
            315 -19 callgsubr
            119 hlineto
            8 3 3 7 hvcurveto
            212 callsubr
            -119 312 callsubr
            81 121 callsubr
            -81 -17 callsubr
            -61 320 callsubr
            -3 9 vhcurveto
            return
          </CharString>
          <CharString index="75">
            6 10 callsubr
            return
          </CharString>
          <CharString index="76">
            -107 callgsubr
            201 -97 callgsubr
            -156 vlineto
            -68 -36 -20 -45 vhcurveto
            -80 hlineto
            -9 -4 -5 -8 hvcurveto
            -32 vlineto
            -42 callsubr
            return
          </CharString>
          <CharString index="77">
            298 callgsubr
            246 vlineto
            6 2 3 8 vhcurveto
            return
          </CharString>
          <CharString index="78">
            9 -22 callsubr
            -9 vhcurveto
            return
          </CharString>
          <CharString index="79">
            hvcurveto
            -18 callgsubr
            return
          </CharString>
          <CharString index="80">
            hlineto
            47 33 15 32 32 callgsubr
            return
          </CharString>
          <CharString index="81">
            vhcurveto
            84 -70 callsubr
            return
          </CharString>
          <CharString index="82">
            -17 -30 -14 hvcurveto
            -4 138 4 callsubr
            return
          </CharString>
          <CharString index="83">
            3 7 vhcurveto
            return
          </CharString>
          <CharString index="84">
            82 hlineto
            58 23 -17 -52 hvcurveto
            -45 vlineto
            -52 590 callgsubr
            -87 hlineto
            -58 -21 17 62 hvcurveto
            8 vlineto
            10 -4 4 -7 vhcurveto
            -24 463 callgsubr
            -8 vlineto
            return
          </CharString>
          <CharString index="85">
            -7 callsubr
            4 return
          </CharString>
          <CharString index="86">
            -4 25 callgsubr
            return
          </CharString>
          <CharString index="87">
            hlineto
            83 53 43 95 hvcurveto
            89 vlineto
            86 -47 39 -83 -85 -46 -39 -86 vhcurveto
            return
          </CharString>
          <CharString index="88">
            hlineto
            -87 callsubr
            return
          </CharString>
          <CharString index="89">
            8 4 4 7 hvcurveto
            20 152 callsubr
            -8 vhcurveto
            -60 hlineto
            return
          </CharString>
          <CharString index="90">
            vlineto
            -4 callsubr
            return
          </CharString>
          <CharString index="91">
            vhcurveto
            62 -64 callsubr
            -62 hlineto
            -54 -28 28 55 hvcurveto
            return
          </CharString>
          <CharString index="92">
            vlineto
            -10 -1 -10 -2 -9 103 callsubr
            -24 callgsubr
            return
          </CharString>
          <CharString index="93">
            271 -93 callsubr
            return
          </CharString>
          <CharString index="94">
            377 callgsubr
            -13 99 callsubr
            return
          </CharString>
          <CharString index="95">
            -92 callsubr
            endchar
          </CharString>
          <CharString index="96">
            -21 -48 vhcurveto
            -22 hlineto
            -48 -38 156 callgsubr
            230 callgsubr
            return
          </CharString>
          <CharString index="97">
            9 3 4 7 -28 callsubr
            return
          </CharString>
          <CharString index="98">
            hlineto
            7 163 callsubr
            return
          </CharString>
          <CharString index="99">
            vlineto
            -98 59 -54 callgsubr
            return
          </CharString>
          <CharString index="100">
            3 4 43 callsubr
            return
          </CharString>
          <CharString index="101">
            -3 4 -9 return
          </CharString>
          <CharString index="102">
            70 callsubr
            25 hlineto
            8 213 callsubr
            return
          </CharString>
          <CharString index="103">
            -6 -2 -3 -7 vhcurveto
            return
          </CharString>
          <CharString index="104">
            380 callgsubr
            4 hlineto
            -70 callgsubr
            182 hlineto
            7 return
          </CharString>
          <CharString index="105">
            -24 -54 vhcurveto
            -100 -35 callgsubr
            return
          </CharString>
          <CharString index="106">
            rmoveto
            -60 callsubr
            return
          </CharString>
          <CharString index="107">
            97 -20 callsubr
            return
          </CharString>
          <CharString index="108">
            82 124 hmoveto
            8 callgsubr
            return
          </CharString>
          <CharString index="109">
            -15 42 11 rmoveto
            -7 370 callsubr
            375 95 callsubr
            26 vlineto
            6 -63 callsubr
            -327 4 hlineto
            324 531 rlineto
            4 6 1 4 7 vvcurveto
            33 -56 callsubr
            -353 hlineto
            -9 158 callgsubr
            -25 -78 callgsubr
            308 -4 hlineto
            -327 -538 rlineto
            -4 -5 0 -5 -7 vvcurveto
            return
          </CharString>
          <CharString index="110">
            hlineto
            -10 callsubr
            return
          </CharString>
          <CharString index="111">
            hlineto
            6 230 callgsubr
            return
          </CharString>
          <CharString index="112">
            hlineto
            -37 callgsubr
            return
          </CharString>
          <CharString index="113">
            203 callsubr
            570 callgsubr
            40 35 63 vhcurveto
            65 hlineto
            61 316 callsubr
            -354 212 callgsubr
            3 3 9 hvcurveto
            356 vlineto
            88 -52 54 -86 vhcurveto
            -66 hlineto
            -58 -31 -24 -28 -15 hvcurveto
            -4 return
          </CharString>
          <CharString index="114">
            42 324 hmoveto
            189 callgsubr
            168 vlineto
            13 -8 7 -11 vhcurveto
            -156 hlineto
            -8 427 callgsubr
            8 vhcurveto
            115 -97 callgsubr
            -132 505 callgsubr
            -101 hlineto
            107 callgsubr
            570 callgsubr
            33 36 61 vhcurveto
            101 464 callgsubr
            -63 266 callsubr
            45 vlineto
            88 -55 54 -86 vhcurveto
            -109 hlineto
            -86 -54 581 callsubr
            54 -54 86 vhcurveto
            return
          </CharString>
          <CharString index="115">
            -34 -39 callgsubr
            return
          </CharString>
          <CharString index="116">
            14 callgsubr
            -256 vlineto
            323 callsubr
            return
          </CharString>
          <CharString index="117">
            2 -24 callsubr
            return
          </CharString>
          <CharString index="118">
            -9 4 -3 8 vhcurveto
            25 hlineto
            8 -96 callgsubr
            return
          </CharString>
          <CharString index="119">
            4 8 hvcurveto
            return
          </CharString>
          <CharString index="120">
            -38 callgsubr
            -51 hlineto
            -9 -3 -4 -7 hvcurveto
            return
          </CharString>
          <CharString index="121">
            107 callgsubr
            222 vlineto
            63 33 36 61 vhcurveto
            return
          </CharString>
          <CharString index="122">
            -100 callgsubr
            -87 55 -49 return
          </CharString>
          <CharString index="123">
            -9 4 -3 7 vhcurveto
            28 hlineto
            6 4 85 callsubr
            -4 -3 -8 hvcurveto
            return
          </CharString>
          <CharString index="124">
            hvcurveto
            -32 vlineto
            -51 590 callgsubr
            -54 hlineto
            -55 -28 24 55 hvcurveto
            25 42 callgsubr
            -5 25 callgsubr
            return
          </CharString>
          <CharString index="125">
            -9 23 callsubr
            return
          </CharString>
          <CharString index="126">
            vlineto
            50 callsubr
            return
          </CharString>
          <CharString index="127">
            -77 225 hmoveto
            368 callsubr
            577 vlineto
            6 230 callgsubr
            145 -4 callgsubr
            -360 201 callsubr
            145 5 callsubr
            -577 vlineto
            -9 4 -3 7 vhcurveto
            return
          </CharString>
          <CharString index="128">
            -9 4 -3 8 vhcurveto
            25 hlineto
            7 5 -86 callsubr
            332 vlineto
            -46 callsubr
            49 hlineto
            87 55 53 88 hvcurveto
            106 vlineto
            88 -55 53 -87 vhcurveto
            186 callgsubr
            138 hlineto
            -32 callsubr
            332 -106 callsubr
            return
          </CharString>
          <CharString index="129">
            -24 callsubr
            98 -106 callsubr
            return
          </CharString>
          <CharString index="130">
            41 callgsubr
            7 return
          </CharString>
          <CharString index="131">
            -38 99 -152 rmoveto
            112 31 92 88 29 hvcurveto
            160 470 497 callgsubr
            -30 hlineto
            -7 -4 -3 -9 -2 hvcurveto
            -147 -429 rlineto
            -4 hlineto
            -147 429 470 callgsubr
            -4 -3 -9 3 hvcurveto
            159 -459 rlineto
            -8 2 4 -4 8 hhcurveto
            19 hlineto
            -65 -24 -20 -68 -88 hhcurveto
            -27 320 callsubr
            -4 9 vhcurveto
            return
          </CharString>
          <CharString index="132">
            rmoveto
            6 2 -10 callgsubr
            -672 -88 callsubr
            273 -92 callgsubr
            -342 vlineto
            -90 callsubr
            9 3 -54 callsubr
            -6 callsubr
            284 callgsubr
            5 3 9 hvcurveto
            332 vlineto
            -46 callsubr
            49 hlineto
            87 55 53 88 hvcurveto
            106 vlineto
            88 -55 53 -87 vhcurveto
            186 callgsubr
            hlineto
            return
          </CharString>
          <CharString index="133">
            rmoveto
            -9 4 -3 6 vhcurveto
            296 callsubr
            106 163 callgsubr
            -28 288 callsubr
            return
          </CharString>
          <CharString index="134">
            63 47 callgsubr
            return
          </CharString>
          <CharString index="135">
            hlineto
            87 51 58 81 hvcurveto
            127 vlineto
            47 -14 34 -27 20 vhcurveto
            9 9 5 14 18 vvcurveto
            122 vlineto
            5 3 3 8 vhcurveto
            91 hlineto
            9 1 3 3 8 vvcurveto
            144 callsubr
            endchar
          </CharString>
          <CharString index="136">
            102 -14 callsubr
            return
          </CharString>
          <CharString index="137">
            -62 381 callgsubr
            211 vlineto
            229 -262 rlineto
            -24 -24 -28 -22 -39 hhcurveto
            return
          </CharString>
          <CharString index="138">
            423 callgsubr
            18 3 16 5 13 vhcurveto
            217 -221 rlineto
            -26 -16 -28 -14 -40 hhcurveto
            return
          </CharString>
          <CharString index="139">
            -7 -21 callsubr
            return
          </CharString>
          <CharString index="140">
            16 callsubr
            -163 -106 rmoveto
            -9 4 -3 7 vhcurveto
            27 -19 callsubr
            106 163 callgsubr
            -27 555 callgsubr
          </CharString>
          <CharString index="141">
            377 callsubr
            217 callgsubr
            -53 86 vhcurveto
            return
          </CharString>
          <CharString index="142">
            vlineto
            60 35 33 61 vhcurveto
            return
          </CharString>
          <CharString index="143">
            4 229 callgsubr
            return
          </CharString>
          <CharString index="144">
            -33 36 63 hvcurveto
            return
          </CharString>
          <CharString index="145">
            rmoveto
            80 callgsubr
            29 -19 callsubr
            return
          </CharString>
          <CharString index="146">
            hlineto
            44 callsubr
            return
          </CharString>
          <CharString index="147">
            232 callsubr
            17 hvcurveto
            return
          </CharString>
          <CharString index="148">
            rmoveto
            -61 -32 32 63 hvcurveto
            108 vlineto
            234 -202 rlineto
            -1 -2 -2 0 -3 hhcurveto
            8 242 463 callsubr
            -194 vlineto
            -236 203 rlineto
            1 hlineto
            -137 42 -99 callgsubr
            71 -97 callgsubr
            -140 vlineto
            -53 23 563 callgsubr
            -41 -16 -26 -43 -66 vvcurveto
            -65 vlineto
            return
          </CharString>
          <CharString index="149">
            -35 39 callsubr
            138 hlineto
            -32 callsubr
            return
          </CharString>
          <CharString index="150">
            126 callgsubr
            -3 return
          </CharString>
          <CharString index="151">
            166 callgsubr
            -13 hvcurveto
            -4 return
          </CharString>
          <CharString index="152">
            5 -1 3 -3 return
          </CharString>
          <CharString index="153">
            -88 callsubr
            74 -28 callgsubr
            -65 hmoveto
            537 callgsubr
            -71 -38 -11 callsubr
            endchar
          </CharString>
          <CharString index="154">
            -8 3 6 72 callsubr
            482 callgsubr
            -310 vlineto
            -84 callgsubr
            endchar
          </CharString>
          <CharString index="155">
            hlineto
            62 316 callsubr
            466 callsubr
            -33 -36 -62 vhcurveto
            return
          </CharString>
          <CharString index="156">
            -2 3 6 hvcurveto
            return
          </CharString>
          <CharString index="157">
            -8 -57 callgsubr
            return
          </CharString>
          <CharString index="158">
            80 12 rmoveto
            -9 4 -3 6 vhcurveto
            30 hlineto
            7 3 2 10 hvcurveto
            486 vlineto
            -21 callgsubr
            -7 -3 25 callgsubr
            return
          </CharString>
          <CharString index="159">
            -99 callgsubr
            337 hlineto
            -66 callgsubr
            return
          </CharString>
          <CharString index="160">
            60 callsubr
            37 34 32 30 26 27 57 55 10 11 5 6 rrcurveto
            4 -120 -90 callgsubr
            return
          </CharString>
          <CharString index="161">
            123 callgsubr
            93 510 callgsubr
            52 311 callgsubr
            -84 hlineto
            -57 493 callsubr
            57 vhcurveto
            return
          </CharString>
          <CharString index="162">
            rmoveto
            86 callgsubr
            -493 hlineto
            44 callgsubr
            endchar
          </CharString>
          <CharString index="163">
            rmoveto
            44 callgsubr
            -134 hlineto
            249 callsubr
            return
          </CharString>
          <CharString index="164">
            157 -19 callgsubr
            return
          </CharString>
          <CharString index="165">
            vlineto
            88 -55 54 -86 vhcurveto
            -86 -46 callgsubr
            return
          </CharString>
          <CharString index="166">
            170 callgsubr
            -4 hlineto
            225 callgsubr
            return
          </CharString>
          <CharString index="167">
            0 -24 -15 -43 -42 vhcurveto
            -62 -60 135 callgsubr
            -4 3 -4 7 vhcurveto
            26 156 callsubr
            return
          </CharString>
          <CharString index="168">
            -103 360 34 rmoveto
            184 callsubr
            140 hlineto
            9 2 3 7 hvcurveto
            212 callsubr
            -144 -46 callgsubr
            144 hlineto
            9 2 3 8 hvcurveto
            return
          </CharString>
          <CharString index="169">
            193 callsubr
            167 -249 rlineto
            -6 3 4 27 callgsubr
            341 callgsubr
            2 hvcurveto
            -177 266 rlineto
            return
          </CharString>
          <CharString index="170">
            rmoveto
            9 4 -104 callgsubr
            -4 4 -9 vhcurveto
            -516 -88 callsubr
            337 265 callsubr
            -87 -55 -55 -88 hvcurveto
            263 callsubr
            -109 -185 rmoveto
            62 34 -38 -63 hvcurveto
            -111 vlineto
            79 callgsubr
            endchar
          </CharString>
          <CharString index="171">
            -6 -3 -8 -4 hvcurveto
            -63 -106 rlineto
            -8 return
          </CharString>
          <CharString index="172">
            rmoveto
            57 33 23 29 14 hvcurveto
            4 -77 hlineto
            404 callsubr
            -178 hlineto
            -9 -2 -4 -6 hvcurveto
            -24 vlineto
            -8 2 -3 9 vhcurveto
            182 hlineto
            189 callgsubr
            496 vlineto
            473 callsubr
            -212 172 callsubr
            -198 vlineto
            -87 53 -54 86 vhcurveto
            return
          </CharString>
          <CharString index="173">
            418 callgsubr
            2 -3 -6 hvcurveto
            return
          </CharString>
          <CharString index="174">
            17 callgsubr
            1 -4 7 hhcurveto
            20 hlineto
            6 6 161 callsubr
            return
          </CharString>
          <CharString index="175">
            rmoveto
            8 211 callsubr
            -8 hvcurveto
            -218 321 callsubr
            return
          </CharString>
          <CharString index="176">
            26 callsubr
            -163 -106 26 callsubr
            endchar
          </CharString>
          <CharString index="177">
            hlineto
            63 30 12 callgsubr
            return
          </CharString>
          <CharString index="178">
            -107 callgsubr
            296 hlineto
            95 callgsubr
            -8 207 callsubr
            -20 -48 17 callsubr
            -222 vlineto
            -9 5 -3 7 vhcurveto
            23 hlineto
            8 4 3 9 hvcurveto
            109 89 callgsubr
            28 return
          </CharString>
          <CharString index="179">
            322 callgsubr
            236 callsubr
            -5 17 18 vvcurveto
            35 593 callgsubr
            171 hlineto
            7 return
          </CharString>
          <CharString index="180">
            54 40 96 282 callgsubr
            5 2 4 6 vhcurveto
            return
          </CharString>
          <CharString index="181">
            600 callsubr
            53 39 95 hvcurveto
            53 vlineto
            80 -51 36 -71 -72 -47 -38 -75 vhcurveto
            -46 vlineto
            74 callgsubr
            43 139 callgsubr
            -52 vlineto
            -68 -35 -23 -53 vhcurveto
            -301 hlineto
            -63 -34 514 callsubr
            21 hlineto
            6 4 3 6 4 -1 4 -3 8 hvcurveto
            -5 17 -5 18 18 vvcurveto
            35 19 22 41 vhcurveto
            157 -62 hlineto
            588 callsubr
            return
          </CharString>
          <CharString index="182">
            -120 203 callgsubr
            167 4 callsubr
            return
          </CharString>
          <CharString index="183">
            hmoveto
            83 callsubr
            return
          </CharString>
          <CharString index="184">
            vhcurveto
            -50 hlineto
            -55 -41 -21 -37 -24 hvcurveto
            -152 hlineto
            280 callgsubr
            -145 vlineto
            -98 59 -41 80 vhcurveto
            -13 callsubr
            145 124 callsubr
            return
          </CharString>
          <CharString index="185">
            0 -40 -33 -52 -57 vhcurveto
            -87 -94 135 callgsubr
            -4 3 -5 7 vhcurveto
            return
          </CharString>
          <CharString index="186">
            rlineto
            -11 -8 -5 -5 -7 vvcurveto
            -6 429 callgsubr
            11 7 5 6 6 hvcurveto
            return
          </CharString>
          <CharString index="187">
            -87 callsubr
            679 vlineto
            -74 callsubr
            return
          </CharString>
          <CharString index="188">
            -4 368 callgsubr
            return
          </CharString>
          <CharString index="189">
            575 callgsubr
            50 vlineto
            114 34 37 50 vhcurveto
            23 hlineto
            9 3 4 361 callgsubr
            -24 hlineto
            -68 -40 -58 -122 -2 hvcurveto
            -5 167 hlineto
            9 -4 361 callsubr
            -3 -8 hvcurveto
            -37 vlineto
            2 -95 39 -73 7 -16 -3 -1 rcurveline
            -144 222 501 callgsubr
            -23 hlineto
            -6 115 callsubr
            61 -90 54 -78 44 -50 28 -31 rlinecurve
            52 hlineto
            return
          </CharString>
          <CharString index="190">
            80 callsubr
            -679 175 callsubr
            return
          </CharString>
          <CharString index="191">
            -59 vlineto
            -9 307 callsubr
            9 hvcurveto
            57 vlineto
            63 34 25 63 vhcurveto
            45 hlineto
            return
          </CharString>
          <CharString index="192">
            -86 callsubr
            106 vlineto
            471 callgsubr
            -28 hlineto
            -7 return
          </CharString>
          <CharString index="193">
            52 vlineto
            74 -45 33 -81 vhcurveto
            -84 hlineto
            -57 -23 16 52 hvcurveto
            13 140 callsubr
          </CharString>
          <CharString index="194">
            16 callgsubr
            hvcurveto
            return
          </CharString>
          <CharString index="195">
            41 hlineto
            49 32 16 31 17 hvcurveto
            269 callsubr
            7 vhcurveto
            return
          </CharString>
          <CharString index="196">
            -21 callsubr
            -619 vlineto
            -9 4 -3 return
          </CharString>
          <CharString index="197">
            192 callgsubr
            -186 573 callsubr
            26 480 callsubr
          </CharString>
          <CharString index="198">
            -60 -34 -36 -64 -56 callgsubr
            3 -54 callsubr
            -6 callsubr
            vhcurveto
            -53 hlineto
            return
          </CharString>
          <CharString index="199">
            154 callsubr
            8 -96 callgsubr
            560 -19 callgsubr
            84 hlineto
            9 return
          </CharString>
          <CharString index="200">
            125 callgsubr
            -140 363 rmoveto
            return
          </CharString>
          <CharString index="201">
            161 callgsubr
            vlineto
            -44 -14 -19 -35 -55 vvcurveto
            return
          </CharString>
          <CharString index="202">
            hlineto
            9 3 4 7 hvcurveto
            return
          </CharString>
          <CharString index="203">
            379 535 callsubr
            -67 149 callgsubr
            67 hlineto
            63 40 -35 -63 hvcurveto
            -109 -367 rmoveto
            330 callgsubr
            6 vhcurveto
            29 hlineto
            80 callsubr
            -233 -4 vlineto
            28 -15 -32 24 -58 hhcurveto
            -67 hlineto
            -85 -53 -54 -88 hvcurveto
            -226 vlineto
            -88 53 -54 85 vhcurveto
            return
          </CharString>
          <CharString index="204">
            rmoveto
            -291 vlineto
            -7 509 callsubr
            5 3 2 7 hvcurveto
            325 vlineto
            7 -3 2 -5 vhcurveto
            -22 hlineto
            -8 -4 -3 -2 -5 hvcurveto
            -58 -32 rlineto
            -8 -5 -2 -4 -9 vvcurveto
            -16 vlineto
            -9 5 -3 10 6 vhcurveto
            endchar
          </CharString>
          <CharString index="205">
            449 callgsubr
            70 hlineto
            481 callsubr
            17 hvcurveto
            -12 callsubr
          </CharString>
          <CharString index="206">
            hlineto
            -52 -45 21 74 hvcurveto
            return
          </CharString>
          <CharString index="207">
            3 41 45 82 vvcurveto
            110 callgsubr
          </CharString>
          <CharString index="208">
            rmoveto
            -89 callsubr
            -7 3 -4 9 vhcurveto
            38 hlineto
            56 23 -27 -57 hvcurveto
            -121 vlineto
            -64 -33 -36 -63 vhcurveto
            -152 hlineto
            -62 -26 27 63 hvcurveto
            42 vlineto
            56 26 29 58 vhcurveto
            40 hlineto
            9 3 5 6 -28 callsubr
            -42 224 callsubr
            62 567 callsubr
            58 vhcurveto
            217 hlineto
            8 2 360 callgsubr
            -2 -6 vhcurveto
            3 -14 -15 2 -17 hhcurveto
            return
          </CharString>
          <CharString index="209">
            474 callsubr
            -10 hhcurveto
            -21 hlineto
            -10 -5 -2 -7 -5 hvcurveto
            -64 465 callsubr
            -4 2 445 callgsubr
            return
          </CharString>
          <CharString index="210">
            vhcurveto
            -214 220 374 callgsubr
            8 30 hhcurveto
            return
          </CharString>
          <CharString index="211">
            hlineto
            537 callgsubr
            return
          </CharString>
          <CharString index="212">
            35 63 hvcurveto
            103 vlineto
            64 return
          </CharString>
          <CharString index="213">
            -25 -70 vhcurveto
            -89 vlineto
            return
          </CharString>
          <CharString index="214">
            -88 callsubr
            334 310 callsubr
            -33 vlineto
            -36 8 -26 19 -18 vhcurveto
            -182 hlineto
            -64 -33 -39 -56 552 callgsubr
            20 hlineto
            7 4 3 6 5 558 callgsubr
            17 -5 18 18 vvcurveto
            35 18 22 41 vhcurveto
            173 hlineto
            -19 -19 -9 -27 -38 vvcurveto
            -41 vlineto
            -86 51 -45 85 vhcurveto
            110 hlineto
            return
          </CharString>
          <CharString index="215">
            -497 -88 876 rmoveto
            473 callsubr
            -27 hlineto
            32 callsubr
            -32 vlineto
            -9 4 -3 7 vhcurveto
            27 -19 callsubr
            13 -157 rmoveto
            81 39 39 84 175 callgsubr
            -68 hlineto
            -58 -21 22 59 hvcurveto
            6 vlineto
            11 -4 3 -7 vhcurveto
            -22 248 callgsubr
            80 vhcurveto
            endchar
          </CharString>
          <CharString index="216" raw="1">
            2107f702 0a0b  
          </CharString>
          <CharString index="217" raw="1">
            33c256e2 1ef70a1d 0b 
          </CharString>
          <CharString index="218">
            17 62 hvcurveto
            8 vlineto
            10 -4 4 -7 vhcurveto
            -24 463 callgsubr
            -8 vlineto
            -89 return
          </CharString>
          <CharString index="219">
            585 callsubr
            -73 148 callgsubr
            return
          </CharString>
          <CharString index="220">
            hlineto
            -7 -2 87 callgsubr
            10 hhcurveto
            return
          </CharString>
          <CharString index="221">
            581 rmoveto
            -107 callsubr
            return
          </CharString>
          <CharString index="222">
            -4 313 callsubr
            2 -3 hvcurveto
            return
          </CharString>
          <CharString index="223">
            vhcurveto
            -120 hlineto
            215 callgsubr
            -338 vlineto
            -66 -41 -46 -73 vhcurveto
            -119 153 callgsubr
            return
          </CharString>
          <CharString index="224">
            9 2 3 8 171 callgsubr
            return
          </CharString>
          <CharString index="225">
            39 vlineto
            10 -4 3 -7 vhcurveto
            -24 hlineto
            -7 -4 -3 -10 hvcurveto
            -38 vlineto
            -64 -36 -36 -63 vhcurveto
            -82 hlineto
            -64 -35 37 64 hvcurveto
            64 vlineto
            64 29 36 63 vhcurveto
            148 hlineto
            42 20 23 35 hvcurveto
            return
          </CharString>
          <CharString index="226">
            hlineto
            62 34 -35 -62 hvcurveto
            -59 vlineto
            29 -43 134 -228 rlineto
            -6 3 4 -4 8 hhcurveto
            28 hlineto
            return
          </CharString>
          <CharString index="227">
            270 callsubr
            -34 vlineto
            -8 4 -3 491 callgsubr
            34 vlineto
            9 return
          </CharString>
          <CharString index="228">
            vlineto
            9 -4 3 -7 536 callsubr
            return
          </CharString>
          <CharString index="229">
            219 callsubr
            143 rmoveto
            -63 -40 -35 -63 vhcurveto
            -65 30 callgsubr
            endchar
          </CharString>
          <CharString index="230">
            122 callgsubr
            -74 return
          </CharString>
          <CharString index="231">
            vlineto
            73 39 22 51 vhcurveto
            return
          </CharString>
          <CharString index="232">
            -24 callsubr
            85 -106 callsubr
            endchar
          </CharString>
          <CharString index="233">
            75 callgsubr
            112 -2 callgsubr
          </CharString>
          <CharString index="234">
            hlineto
            8 -96 callgsubr
            560 -19 callgsubr
            84 hlineto
            9 4 -104 callgsubr
            -4 4 -9 vhcurveto
            return
          </CharString>
          <CharString index="235">
            vlineto
            174 callgsubr
            return
          </CharString>
          <CharString index="236">
            220 callsubr
            79 50 196 callgsubr
            return
          </CharString>
          <CharString index="237">
            -41 -20 -47 -16 -101 callsubr
            return
          </CharString>
          <CharString index="238">
            -13 rmoveto
            5 3 2 7 hvcurveto
            63 45 vlineto
            7 2 4 5 hvcurveto
            19 vlineto
            6 -2 3 -7 vhcurveto
            -45 223 hlineto
            471 callgsubr
            -38 hlineto
            -10 -5 -4 -8 -5 hvcurveto
            -124 -216 rlineto
            -4 -6 -2 -4 -8 vvcurveto
            -14 508 callsubr
            148 -63 hlineto
            -7 610 callsubr
            -9 312 rmoveto
            -203 -117 vlineto
            return
          </CharString>
          <CharString index="239">
            vhcurveto
            -76 -95 594 callgsubr
            -4 -2 558 callsubr
            27 hlineto
            10 5 5 8 return
          </CharString>
          <CharString index="240">
            vhcurveto
            62 3 callsubr
            return
          </CharString>
          <CharString index="241">
            213 callsubr
            -50 43 return
          </CharString>
          <CharString index="242">
            hvcurveto
            -75 callsubr
            -2 4 return
          </CharString>
          <CharString index="243">
            rmoveto
            9 3 4 8 -28 callsubr
            -290 201 callsubr
            58 428 callgsubr
            -34 -24 -55 vhcurveto
            -100 522 callgsubr
            108 hlineto
            77 52 522 callsubr
            return
          </CharString>
          <CharString index="244">
            rmoveto
            9 3 4 8 -28 callsubr
            409 callsubr
            -64 vlineto
            -71 -34 -24 -54 vhcurveto
            -100 -50 callgsubr
            107 hlineto
            77 52 42 95 hvcurveto
            68 vlineto
            42 498 callsubr
            return
          </CharString>
          <CharString index="245">
            40 callsubr
            103 vlineto
            6 230 callgsubr
            return
          </CharString>
          <CharString index="246">
            32 17 hvcurveto
            4 return
          </CharString>
          <CharString index="247">
            52 callgsubr
            84 -2 callgsubr
          </CharString>
          <CharString index="248">
            -29 callgsubr
            31 -19 callsubr
            33 vlineto
            473 callsubr
            return
          </CharString>
          <CharString index="249">
            372 callgsubr
            -21 5 return
          </CharString>
          <CharString index="250">
            hlineto
            339 callgsubr
            -20 188 callsubr
            37 hlineto
            56 24 -27 -56 hvcurveto
            -168 vlineto
            -64 -33 -36 -64 vhcurveto
            -151 hlineto
            -63 -25 27 63 hvcurveto
            42 vlineto
            56 25 29 59 vhcurveto
            39 hlineto
            9 3 5 6 -28 callsubr
            -41 224 callsubr
            62 567 callsubr
            57 vhcurveto
            return
          </CharString>
          <CharString index="251">
            19 -56 callsubr
            return
          </CharString>
          <CharString index="252">
            -6 198 callsubr
            return
          </CharString>
          <CharString index="253">
            190 callgsubr
            91 95 callsubr
            23 395 callgsubr
            return
          </CharString>
          <CharString index="254">
            -2 4 -10 vhcurveto
            return
          </CharString>
          <CharString index="255">
            vhcurveto
            26 147 callgsubr
          </CharString>
          <CharString index="256">
            hlineto
            -62 386 callgsubr
            8 vhcurveto
            return
          </CharString>
          <CharString index="257">
            vlineto
            8 -63 callsubr
            return
          </CharString>
          <CharString index="258">
            209 callsubr
            327 callgsubr
          </CharString>
          <CharString index="259">
            vlineto
            8 -4 4 return
          </CharString>
          <CharString index="260">
            195 callgsubr
            36 90 hvcurveto
            15 446 callgsubr
            return
          </CharString>
          <CharString index="261">
            114 callgsubr
            7 vhcurveto
            25 hlineto
            return
          </CharString>
          <CharString index="262">
            150 callgsubr
            endchar
          </CharString>
          <CharString index="263">
            hlineto
            8 6 4 5 5 hvcurveto
            return
          </CharString>
          <CharString index="264">
            -21 vlineto
            -7 3 -4 return
          </CharString>
          <CharString index="265">
            6 -5 9 hhcurveto
            20 hlineto
            7 3 4 5 5 495 callsubr
            249 callgsubr
            103 hlineto
            42 13 -13 -36 hvcurveto
            -12 -55 callsubr
            -153 258 rlineto
            return
          </CharString>
          <CharString index="266">
            304 callsubr
            -33 vlineto
            -55 -28 -26 -56 vhcurveto
            -71 hlineto
            -63 -34 36 63 hvcurveto
            89 172 callgsubr
            164 hlineto
            13 396 callgsubr
            128 -19 callgsubr
            83 -106 callsubr
            endchar
          </CharString>
          <CharString index="267">
            37 182 callgsubr
            -126 hlineto
            -9 4 -3 7 vhcurveto
            25 -19 callsubr
            return
          </CharString>
          <CharString index="268">
            3 6 5 169 callsubr
            return
          </CharString>
          <CharString index="269">
            218 callsubr
            vhcurveto
            return
          </CharString>
          <CharString index="270">
            4 12 callsubr
            return
          </CharString>
          <CharString index="271">
            4 7 hvcurveto
            22 vlineto
            return
          </CharString>
          <CharString index="272">
            vlineto
            -88 54 -54 return
          </CharString>
          <CharString index="273">
            -227 vlineto
            -9 4 -3 7 vhcurveto
            26 -19 callsubr
            560 vlineto
            6 230 callgsubr
            return
          </CharString>
          <CharString index="274">
            6 4 -1 4 -2 8 hvcurveto
            -6 17 -4 18 249 callgsubr
            return
          </CharString>
          <CharString index="275">
            -41 149 callsubr
            return
          </CharString>
          <CharString index="276">
            171 callsubr
            -4 5 return
          </CharString>
          <CharString index="277">
            hvcurveto
            20 -56 callsubr
            return
          </CharString>
          <CharString index="278">
            hvcurveto
            90 215 callsubr
            return
          </CharString>
          <CharString index="279">
            hlineto
            240 callgsubr
            return
          </CharString>
          <CharString index="280">
            719 94 callgsubr
            -163 -106 94 callgsubr
            endchar
          </CharString>
          <CharString index="281">
            -68 -36 -20 -45 vhcurveto
            return
          </CharString>
          <CharString index="282">
            vlineto
            -9 4 -3 6 vhcurveto
            return
          </CharString>
          <CharString index="283">
            201 callsubr
            23 245 callsubr
            -109 -35 callgsubr
            116 hlineto
            77 52 42 94 hvcurveto
            76 vlineto
            43 -12 31 -28 15 vhcurveto
            4 return
          </CharString>
          <CharString index="284">
            rmoveto
            60 callgsubr
            51 467 callgsubr
            return
          </CharString>
          <CharString index="285">
            -8 464 callsubr
            -6 -3 return
          </CharString>
          <CharString index="286">
            vhcurveto
            140 -6 rlineto
            539 callsubr
            26 vlineto
            7 -3 4 -8 -1 vhcurveto
            -140 -7 7 166 rlineto
            473 callsubr
            -28 379 callsubr
            1 hvcurveto
            7 -166 -139 7 rlineto
            -9 1 -2 -4 -7 vvcurveto
            -26 187 callsubr
            return
          </CharString>
          <CharString index="287">
            -19 callsubr
            619 vlineto
            473 callsubr
            return
          </CharString>
          <CharString index="288">
            24 15 12 403 callgsubr
            230 callgsubr
            return
          </CharString>
          <CharString index="289">
            84 484 callgsubr
            15 18 vvcurveto
            return
          </CharString>
          <CharString index="290">
            128 21 rmoveto
            -7 -3 -4 -8 hvcurveto
            -34 vlineto
            -8 596 callsubr
            31 -9 callsubr
            34 152 callsubr
            -7 vhcurveto
            return
          </CharString>
          <CharString index="291">
            174 callgsubr
            -140 149 callgsubr
            return
          </CharString>
          <CharString index="292">
            206 callsubr
            -73 -40 return
          </CharString>
          <CharString index="293">
            vhcurveto
            29 156 callsubr
            return
          </CharString>
          <CharString index="294">
            vlineto
            -7 370 callsubr
            return
          </CharString>
          <CharString index="295">
            vlineto
            -7 373 callsubr
            return
          </CharString>
          <CharString index="296">
            350 callgsubr
            -53 -97 -54 309 callsubr
            -24 113 callsubr
            return
          </CharString>
          <CharString index="297">
            rmoveto
            -3 -3 -2 -3 -4 vvcurveto
            -5 4 358 callsubr
            3 4 163 167 12 15 rrcurveto
            5 5 4 5 7 vvcurveto
            3 -1 3 -4 4 vhcurveto
            -8 7 rlineto
            3 -3 -3 2 -3 hhcurveto
            -5 -3 -3 -5 -5 hvcurveto
            return
          </CharString>
          <CharString index="298">
            rmoveto
            9 3 4 6 346 callsubr
            -202 hlineto
            -89 callsubr
            -6 -57 callgsubr
            endchar
          </CharString>
          <CharString index="299">
            22 callgsubr
            160 hlineto
            87 51 58 81 hvcurveto
            return
          </CharString>
          <CharString index="300">
            174 callsubr
            -80 173 callgsubr
            -8 hvcurveto
            -32 vlineto
            19 -24 return
          </CharString>
          <CharString index="301">
            rmoveto
            -8 269 callgsubr
            8 hvcurveto
            99 vlineto
            8 -4 3 -7 vhcurveto
            -29 555 callgsubr
          </CharString>
          <CharString index="302">
            -33 34 64 hvcurveto
            246 10 callgsubr
            return
          </CharString>
          <CharString index="303">
            -7 vhcurveto
            -24 hlineto
            -8 -4 return
          </CharString>
          <CharString index="304">
            vlineto
            77 -45 41 -77 vhcurveto
            return
          </CharString>
          <CharString index="305">
            -3 3 7 hvcurveto
            return
          </CharString>
          <CharString index="306">
            51 hlineto
            9 163 callsubr
            21 vlineto
            8 -4 3 -9 vhcurveto
            -47 hlineto
            -64 503 callgsubr
            72 32 27 61 59 33 535 callgsubr
            8 vhcurveto
            24 -19 callsubr
            87 vlineto
            74 34 23 59 return
          </CharString>
          <CharString index="307">
            0 -30 -15 -53 -44 vhcurveto
            -72 -60 rlineto
            -4 -4 -1 -2 -4 290 callgsubr
            35 hlineto
            8 7 5 5 5 hvcurveto
            return
          </CharString>
          <CharString index="308">
            hlineto
            -9 427 callgsubr
            9 vhcurveto
            return
          </CharString>
          <CharString index="309">
            vlineto
            60 callgsubr
            return
          </CharString>
          <CharString index="310">
            114 188 callgsubr
            return
          </CharString>
          <CharString index="311">
            -59 341 callsubr
            return
          </CharString>
          <CharString index="312">
            vvcurveto
            13 vlineto
            9 -4 4 -8 214 callgsubr
            -9 hvcurveto
            -12 vlineto
            -65 -34 -34 -63 vhcurveto
            -82 568 callsubr
            64 hvcurveto
            52 142 callgsubr
            145 232 callsubr
            16 hvcurveto
            115 -19 callgsubr
            return
          </CharString>
          <CharString index="313">
            248 callsubr
            -81 hlineto
            return
          </CharString>
          <CharString index="314">
            vlineto
            -75 43 -35 84 vhcurveto
            60 hlineto
            52 21 return
          </CharString>
          <CharString index="315">
            14 15 22 9 29 hhcurveto
            -24 callgsubr
            return
          </CharString>
          <CharString index="316">
            17 callgsubr
            2 -4 7 hhcurveto
            19 hlineto
            7 return
          </CharString>
          <CharString index="317">
            -9 3 -3 7 vhcurveto
            30 367 callgsubr
            96 vlineto
            9 -4 2 -6 vhcurveto
            return
          </CharString>
          <CharString index="318">
            -4 3 -7 433 callgsubr
            return
          </CharString>
          <CharString index="319">
            24 128 callsubr
            return
          </CharString>
          <CharString index="320">
            4 271 callgsubr
            return
          </CharString>
          <CharString index="321">
            -34 hlineto
            166 callgsubr
            return
          </CharString>
          <CharString index="322">
            254 callsubr
            5 return
          </CharString>
          <CharString index="323">
            -92 callgsubr
            -340 vlineto
            319 callgsubr
            return
          </CharString>
          <CharString index="324">
            444 callgsubr
            -2 558 callsubr
            31 582 callgsubr
            return
          </CharString>
          <CharString index="325">
            vlineto
            7 -2 4 -9 return
          </CharString>
          <CharString index="326">
            -1 callsubr
            -212 -46 callgsubr
            172 return
          </CharString>
          <CharString index="327">
            168 callgsubr
            80 20 vlineto
            return
          </CharString>
          <CharString index="328">
            386 callsubr
            -52 18 -33 45 -16 vhcurveto
            -4 vlineto
            return
          </CharString>
          <CharString index="329">
            -17 callgsubr
            endchar
          </CharString>
          <CharString index="330">
            5 hvcurveto
            94 128 rlineto
            5 hlineto
            return
          </CharString>
          <CharString index="331">
            hlineto
            -54 -28 29 54 hvcurveto
            return
          </CharString>
          <CharString index="332">
            53 77 -29 58 hhcurveto
            28 29 5 10 23 hvcurveto
            13 5 5 5 9 vvcurveto
            -75 callsubr
            -3 4 -6 vhcurveto
            -11 -34 -22 -43 -57 -71 29 -60 hhcurveto
            -28 -29 -5 -10 -22 hvcurveto
            -14 -5 -5 -5 -9 vvcurveto
            -19 vlineto
            return
          </CharString>
          <CharString index="333">
            189 373 rmoveto
            -42 26 -33 35 60 vvcurveto
            66 26 22 62 63 23 -22 -66 -49 -22 -46 -59 -38 vhcurveto
            return
          </CharString>
          <CharString index="334">
            -5 -6 5 hvcurveto
            90 465 callsubr
            4 6 -3 6 hhcurveto
            return
          </CharString>
          <CharString index="335">
            -46 vlineto
            -9 4 -3 7 vhcurveto
            return
          </CharString>
          <CharString index="336">
            -63 -40 -35 -63 vhcurveto
            return
          </CharString>
          <CharString index="337">
            -3 3 6 hvcurveto
            return
          </CharString>
          <CharString index="338">
            592 callsubr
            54 97 53 232 callgsubr
          </CharString>
          <CharString index="339">
            hlineto
            14 11 9 return
          </CharString>
          <CharString index="340">
            239 callsubr
            42 -106 callsubr
            -241 -88 callsubr
            110 406 callsubr
            -10 -28 -41 vvcurveto
            return
          </CharString>
          <CharString index="341">
            111 callsubr
            44 -33 80 vhcurveto
            return
          </CharString>
          <CharString index="342">
            308 callgsubr
            vlineto
            223 callgsubr
            return
          </CharString>
          <CharString index="343">
            4 6 5 -1 3 340 callgsubr
            return
          </CharString>
          <CharString index="344">
            -7 vhcurveto
            -205 hlineto
            145 callsubr
            return
          </CharString>
          <CharString index="345">
            -102 callgsubr
            -8 return
          </CharString>
          <CharString index="346">
            vlineto
            57 23 28 54 vhcurveto
            return
          </CharString>
          <CharString index="347">
            262 callsubr
            -2 return
          </CharString>
          <CharString index="348">
            23 -26 -60 hvcurveto
            return
          </CharString>
          <CharString index="349">
            216 callsubr
            64 vhcurveto
            49 3 callsubr
            -54 hlineto
            return
          </CharString>
          <CharString index="350">
            hvcurveto
            -318 -55 callgsubr
            return
          </CharString>
          <CharString index="351">
            363 callsubr
            -32 288 callsubr
            return
          </CharString>
          <CharString index="352">
            428 callgsubr
            545 callsubr
            return
          </CharString>
          <CharString index="353">
            3 11 -7 hvcurveto
            -148 225 rlineto
            7 -5 return
          </CharString>
          <CharString index="354">
            4 vlineto
            29 15 11 23 45 vvcurveto
            63 vlineto
            6 return
          </CharString>
          <CharString index="355">
            259 rmoveto
            -69 -41 -43 -73 vhcurveto
            return
          </CharString>
          <CharString index="356">
            -87 -53 -54 -89 hvcurveto
            return
          </CharString>
          <CharString index="357">
            -104 hlineto
            -61 -31 27 63 hvcurveto
            38 -37 callsubr
            32 239 callsubr
            return
          </CharString>
          <CharString index="358">
            -42 202 callsubr
            41 vlineto
            return
          </CharString>
          <CharString index="359">
            rlineto
            -6 4 4 -4 8 565 callsubr
            5 3 -1 3 return
          </CharString>
          <CharString index="360">
            hlineto
            86 54 54 88 hvcurveto
            return
          </CharString>
          <CharString index="361">
            109 rlineto
            6 return
          </CharString>
          <CharString index="362">
            rmoveto
            -61 -31 27 63 hvcurveto
            38 -37 callsubr
            32 239 callsubr
            return
          </CharString>
          <CharString index="363">
            308 callgsubr
            -17 callsubr
            -146 hlineto
            280 callgsubr
            return
          </CharString>
          <CharString index="364">
            -9 4 -2 7 vhcurveto
            return
          </CharString>
          <CharString index="365">
            -26 -21 -60 vhcurveto
            return
          </CharString>
          <CharString index="366">
            2 -9 hhcurveto
            -22 hlineto
            -9 -5 -2 -7 -5 hvcurveto
            -64 502 callsubr
            8 hhcurveto
            23 hlineto
            7 3 1 5 3 hvcurveto
            53 97 53 -97 rlineto
            -5 3 3 -1 7 hhcurveto
            return
          </CharString>
          <CharString index="367">
            -84 callsubr
            -85 47 -53 85 vhcurveto
            return
          </CharString>
          <CharString index="368">
            -57 -27 -23 -59 vhcurveto
            -68 hlineto
            -61 -24 19 52 hvcurveto
            10 vlineto
            49 22 20 59 vhcurveto
            36 -40 callgsubr
            -36 hlineto
            -57 -24 19 50 hvcurveto
            return
          </CharString>
          <CharString index="369">
            -4 -5 -3 1 return
          </CharString>
          <CharString index="370">
            -115 vlineto
            -89 55 -54 586 callgsubr
            56 54 87 hvcurveto
            75 callgsubr
            return
          </CharString>
          <CharString index="371">
            100 callgsubr
            -130 hlineto
            -81 -45 -34 -75 hvcurveto
            -16 vlineto
            -76 43 -34 83 vhcurveto
            return
          </CharString>
          <CharString index="372">
            -97 callgsubr
            -58 349 callgsubr
            return
          </CharString>
          <CharString index="373">
            hvcurveto
            -43 121 callgsubr
            return
          </CharString>
          <CharString index="374">
            310 callgsubr
            -145 hlineto
            -9 return
          </CharString>
          <CharString index="375">
            9 3 4 7 hvcurveto
            25 -56 callsubr
            return
          </CharString>
          <CharString index="376">
            4 331 callsubr
            return
          </CharString>
          <CharString index="377">
            rmoveto
            32 callsubr
            return
          </CharString>
          <CharString index="378">
            hlineto
            63 24 -26 -60 hvcurveto
            return
          </CharString>
          <CharString index="379">
            484 callsubr
            83 vhcurveto
            return
          </CharString>
          <CharString index="380">
            -86 56 -43 83 vhcurveto
            98 -4 hlineto
            0 -22 -12 -45 -35 vhcurveto
            -92 -72 273 callgsubr
            -2 -4 559 callgsubr
            30 hlineto
            10 7 4 5 5 hvcurveto
            2 2 return
          </CharString>
          <CharString index="381">
            vhcurveto
            -17 hlineto
            -6 -3 566 callgsubr
            -17 -21 -46 vhcurveto
            -5 hlineto
            -43 -17 20 57 401 callgsubr
            -18 hlineto
            -6 -4 -2 -8 hvcurveto
            endchar
          </CharString>
          <CharString index="382">
            128 callsubr
            -39 hlineto
            return
          </CharString>
          <CharString index="383">
            vlineto
            -9 5 -5 8 8 vhcurveto
            136 133 rlineto
            7 7 5 3 13 vvcurveto
            19 vlineto
            12 -5 4 -7 7 vhcurveto
            -136 133 rlineto
            -8 8 -5 -5 -9 vvcurveto
            return
          </CharString>
          <CharString index="384">
            -43 244 callsubr
            -186 vlineto
            -7 4 -2 return
          </CharString>
          <CharString index="385">
            425 callgsubr
            5 vhcurveto
            14 hlineto
            6 3 2 8 hvcurveto
            41 vlineto
            return
          </CharString>
          <CharString index="386">
            vlineto
            6 230 callgsubr
            92 hlineto
            9 4 -104 callgsubr
            -4 4 -9 vhcurveto
            return
          </CharString>
          <CharString index="387">
            hhcurveto
            28 hlineto
            7 4 return
          </CharString>
          <CharString index="388">
            -4 -8 hvcurveto
            -32 vlineto
            return
          </CharString>
          <CharString index="389">
            -34 -37 -63 vhcurveto
            -64 hlineto
            -63 -35 37 64 hvcurveto
            60 vlineto
            9 -4 4 -7 vhcurveto
            -25 557 callsubr
            -61 vlineto
            -89 55 -55 88 vhcurveto
            69 hlineto
            89 54 return
          </CharString>
          <CharString index="390">
            rmoveto
            436 callgsubr
            -87 vlineto
            -5 -2 -4 -7 vhcurveto
            -119 hlineto
            -87 -53 -54 -88 hvcurveto
            return
          </CharString>
          <CharString index="391">
            rmoveto
            -102 callsubr
            return
          </CharString>
          <CharString index="392">
            rmoveto
            -8 -7 -3 -8 -3 hvcurveto
            -64 -106 rlineto
            -8 -3 385 callgsubr
          </CharString>
          <CharString index="393">
            -290 131 378 rmoveto
            323 callgsubr
            -35 hlineto
            -7 451 callsubr
            -119 vlineto
            -9 4 -3 7 vhcurveto
            35 288 callgsubr
            endchar
          </CharString>
          <CharString index="394">
            -38 -72 vhcurveto
            -15 vlineto
            -10 return
          </CharString>
          <CharString index="395">
            hlineto
            -6 192 callgsubr
            return
          </CharString>
          <CharString index="396">
            rmoveto
            215 callgsubr
            return
          </CharString>
          <CharString index="397">
            hhcurveto
            37 hlineto
            47 35 14 32 16 hvcurveto
            4 -126 hlineto
            -9 5 437 callsubr
            return
          </CharString>
          <CharString index="398">
            -497 623 vmoveto
            83 vlineto
            56 33 22 45 vhcurveto
            23 hlineto
            9 4 4 7 hvcurveto
            -75 callsubr
            -4 4 -9 vhcurveto
            -27 hlineto
            -77 -45 -41 -77 hvcurveto
            -84 vlineto
            return
          </CharString>
          <CharString index="399">
            hlineto
            62 callgsubr
            return
          </CharString>
          <CharString index="400">
            321 callgsubr
            -45 hlineto
            -7 -3 227 callsubr
            20 hlineto
            7 412 callsubr
          </CharString>
          <CharString index="401">
            -9 -5 238 callsubr
            5 -87 callgsubr
            79 -97 callgsubr
            return
          </CharString>
          <CharString index="402">
            -24 callsubr
            204 -92 callgsubr
            return
          </CharString>
          <CharString index="403">
            28 -19 callsubr
            return
          </CharString>
          <CharString index="404">
            -124 vlineto
            -96 return
          </CharString>
          <CharString index="405">
            hlineto
            -8 -1 87 callgsubr
            9 hhcurveto
            endchar
          </CharString>
          <CharString index="406">
            5 322 callgsubr
            236 callsubr
            return
          </CharString>
          <CharString index="407">
            hlineto
            328 callsubr
            return
          </CharString>
          <CharString index="408">
            hlineto
            -58 -20 22 59 hvcurveto
            6 vlineto
            11 -5 3 -7 vhcurveto
            return
          </CharString>
          <CharString index="409">
            424 callgsubr
            -3 -3 -7 vhcurveto
            return
          </CharString>
          <CharString index="410">
            hlineto
            9 3 5 361 callgsubr
            return
          </CharString>
          <CharString index="411">
            vlineto
            473 callsubr
            -24 hlineto
            32 callsubr
            return
          </CharString>
          <CharString index="412">
            vlineto
            -9 41 callgsubr
            6 return
          </CharString>
          <CharString index="413">
            7 hvcurveto
            23 128 callsubr
            return
          </CharString>
          <CharString index="414">
            432 callgsubr
            7 4 4 return
          </CharString>
          <CharString index="415">
            331 -92 callgsubr
            return
          </CharString>
          <CharString index="416">
            589 callsubr
            -4 1 -6 hhcurveto
            return
          </CharString>
          <CharString index="417">
            -4 hlineto
            -27 512 callsubr
            return
          </CharString>
          <CharString index="418">
            7 472 callsubr
            return
          </CharString>
          <CharString index="419">
            hlineto
            -7 49 callsubr
            return
          </CharString>
          <CharString index="420">
            262 callsubr
            -3 return
          </CharString>
          <CharString index="421">
            435 callsubr
            5 hvcurveto
            89 150 callgsubr
            return
          </CharString>
          <CharString index="422">
            0 -38 -22 -48 -38 vhcurveto
            -69 -53 rlineto
            -4 -3 -1 -3 -4 558 callsubr
            33 hlineto
            8 8 5 5 5 hvcurveto
            3 2 118 return
          </CharString>
          <CharString index="423">
            33 -36 -63 hvcurveto
            return
          </CharString>
          <CharString index="424">
            143 12 301 callgsubr
            599 vlineto
            551 callgsubr
            return
          </CharString>
          <CharString index="425">
            168 rmoveto
            328 callsubr
            32 560 callsubr
            37 391 callgsubr
          </CharString>
          <CharString index="426">
            -97 callgsubr
            -340 vlineto
            -60 -35 -36 -63 vhcurveto
            -37 hlineto
            -64 return
          </CharString>
          <CharString index="427">
            hlineto
            307 callgsubr
            return
          </CharString>
          <CharString index="428">
            224 callgsubr
            3 return
          </CharString>
          <CharString index="429">
            433 callsubr
            25 hlineto
            return
          </CharString>
          <CharString index="430">
            -86 55 -53 84 vhcurveto
            return
          </CharString>
          <CharString index="431">
            -4 hlineto
            60 callsubr
            return
          </CharString>
          <CharString index="432">
            -50 callgsubr
            117 -4 hlineto
            303 callgsubr
            return
          </CharString>
          <CharString index="433">
            -97 -53 97 rlineto
            5 -3 -3 1 -7 hhcurveto
            -23 298 callsubr
          </CharString>
          <CharString index="434">
            4 3 2 5 2 vhcurveto
            25 84 rlineto
            8 24 3 15 18 vvcurveto
            endchar
          </CharString>
          <CharString index="435">
            -7 -4 -3 508 callgsubr
            -3 7 vhcurveto
            return
          </CharString>
          <CharString index="436">
            -68 -27 388 callsubr
            return
          </CharString>
          <CharString index="437">
            -5 -9 -16 hhcurveto
            -24 -6 13 40 hvcurveto
            33 vlineto
            7 return
          </CharString>
          <CharString index="438">
            569 callsubr
            4 -3 return
          </CharString>
          <CharString index="439">
            374 callgsubr
            7 29 hhcurveto
            582 callsubr
            20 150 callsubr
            -59 hlineto
            -87 -54 -53 -88 -1 hvcurveto
            return
          </CharString>
          <CharString index="440">
            5 6 rrcurveto
            4 544 callsubr
            4 -3 7 vhcurveto
            25 -19 callsubr
            332 35 callsubr
            36 hlineto
            return
          </CharString>
          <CharString index="441">
            -95 callsubr
            -171 -4 vlineto
            65 callgsubr
            return
          </CharString>
          <CharString index="442">
            -9 3 6 -5 9 472 callsubr
            4 5 5 558 callgsubr
            18 -5 17 18 vvcurveto
            35 593 callgsubr
            return
          </CharString>
          <CharString index="443">
            311 callsubr
            3 6 532 callgsubr
            return
          </CharString>
          <CharString index="444">
            302 callsubr
            -125 hlineto
            return
          </CharString>
          <CharString index="445">
            vlineto
            43 227 callgsubr
            return
          </CharString>
          <CharString index="446">
            -9 -2 -4 -7 hvcurveto
            return
          </CharString>
          <CharString index="447">
            -29 -26 -55 vhcurveto
            return
          </CharString>
          <CharString index="448">
            -35 -35 -63 vhcurveto
            return
          </CharString>
          <CharString index="449">
            rmoveto
            9 -4 2 -6 vhcurveto
            -36 hlineto
            -7 -3 -2 -9 hvcurveto
            -119 561 callgsubr
            36 367 callgsubr
            return
          </CharString>
          <CharString index="450">
            -106 callsubr
            -231 -88 callsubr
            return
          </CharString>
          <CharString index="451">
            rmoveto
            -64 -32 -31 -63 vhcurveto
            -7 hlineto
            -63 -32 31 64 hvcurveto
            125 vlineto
            64 32 31 63 vhcurveto
            7 hlineto
            63 32 -31 -64 hvcurveto
            return
          </CharString>
          <CharString index="452">
            0 -40 -22 -59 -45 vhcurveto
            -72 -55 rlineto
            -4 -4 -2 -3 -3 590 callsubr
            7 vhcurveto
            35 hlineto
            10 7 5 5 5 hvcurveto
            return
          </CharString>
          <CharString index="453">
            hvcurveto
            144 callsubr
            return
          </CharString>
          <CharString index="454">
            381 callgsubr
            253 vlineto
            6 return
          </CharString>
          <CharString index="455">
            hvcurveto
            -23 187 callsubr
            return
          </CharString>
          <CharString index="456">
            1 5 6 -4 hvcurveto
            endchar
          </CharString>
          <CharString index="457">
            8 413 callgsubr
            -35 197 callgsubr
            -120 556 callgsubr
            35 461 callgsubr
            return
          </CharString>
          <CharString index="458">
            -4 566 callgsubr
            -16 -21 -46 vhcurveto
            -5 hlineto
            -44 -16 20 57 401 callgsubr
            -19 hlineto
            return
          </CharString>
          <CharString index="459">
            vlineto
            56 33 21 45 vhcurveto
            24 hlineto
            9 3 12 callsubr
            18 150 callsubr
            -28 hlineto
            -77 -45 -41 -77 hvcurveto
            return
          </CharString>
          <CharString index="460">
            -35 -63 vhcurveto
            -46 hlineto
            -9 158 callgsubr
            -21 19 callsubr
            50 465 callgsubr
            88 hvcurveto
            106 vlineto
            88 return
          </CharString>
          <CharString index="461">
            -19 -14 4 -30 32 hhcurveto
            38 34 16 14 hvcurveto
            1 8 -5 4 return
          </CharString>
          <CharString index="462">
            367 callsubr
            vhcurveto
            492 callsubr
            return
          </CharString>
          <CharString index="463">
            vlineto
            -52 245 callgsubr
            return
          </CharString>
          <CharString index="464">
            -99 callgsubr
            73 hlineto
            return
          </CharString>
          <CharString index="465">
            -4 7 186 callsubr
            return
          </CharString>
          <CharString index="466">
            vlineto
            -59 -17 -24 -59 vhcurveto
            -18 hlineto
            -59 return
          </CharString>
          <CharString index="467">
            -4 238 callsubr
            4 -4 return
          </CharString>
          <CharString index="468">
            2 -7 vhcurveto
            -29 hlineto
            -7 -4 return
          </CharString>
          <CharString index="469">
            vlineto
            43 157 callgsubr
            return
          </CharString>
          <CharString index="470">
            rmoveto
            165 callgsubr
            return
          </CharString>
          <CharString index="471">
            -4 571 callgsubr
            -6 return
          </CharString>
          <CharString index="472">
            vlineto
            -88 55 -52 86 vhcurveto
            return
          </CharString>
          <CharString index="473">
            rmoveto
            -95 callsubr
            return
          </CharString>
          <CharString index="474">
            -22 5 -29 10 -23 return
          </CharString>
          <CharString index="475">
            6 -96 callgsubr
            return
          </CharString>
          <CharString index="476">
            452 callgsubr
            hvcurveto
            return
          </CharString>
          <CharString index="477">
            2 -87 callgsubr
            return
          </CharString>
          <CharString index="478">
            488 callgsubr
            -18 24 59 hvcurveto
            56 vlineto
            60 18 23 59 vhcurveto
            return
          </CharString>
          <CharString index="479">
            186 vlineto
            7 return
          </CharString>
          <CharString index="480">
            4 -87 callgsubr
            return
          </CharString>
          <CharString index="481">
            -54 -54 -88 hvcurveto
            return
          </CharString>
          <CharString index="482">
            17 345 hmoveto
            85 callgsubr
            -247 hlineto
            369 callgsubr
            return
          </CharString>
          <CharString index="483">
            vhcurveto
            25 -19 callsubr
            560 vlineto
            6 2 3 return
          </CharString>
          <CharString index="484">
            hlineto
            348 callgsubr
            64 34 35 63 vhcurveto
            return
          </CharString>
          <CharString index="485">
            -91 59 -65 443 callsubr
            return
          </CharString>
          <CharString index="486">
            520 callgsubr
            -9 return
          </CharString>
          <CharString index="487">
            466 callgsubr
            7 return
          </CharString>
          <CharString index="488">
            32 36 62 vhcurveto
            return
          </CharString>
          <CharString index="489">
            23 29 22 vhcurveto
            199 153 rlineto
            38 29 25 45 52 vvcurveto
            42 vlineto
            88 -54 51 -86 vhcurveto
            -81 hlineto
            return
          </CharString>
          <CharString index="490">
            -7 vhcurveto
            -314 111 callgsubr
            return
          </CharString>
          <CharString index="491">
            rmoveto
            -74 -39 42 71 hvcurveto
            91 20 vlineto
            79 1 50 35 90 vvcurveto
            15 vlineto
            41 -12 30 146 callgsubr
            return
          </CharString>
          <CharString index="492">
            -19 callgsubr
            193 48 callsubr
            endchar
          </CharString>
          <CharString index="493">
            310 callsubr
            -35 vlineto
            return
          </CharString>
          <CharString index="494">
            18 vhcurveto
            4 vlineto
            34 18 17 35 53 vvcurveto
            return
          </CharString>
          <CharString index="495">
            -21 -60 vhcurveto
            -51 hlineto
            -9 158 callgsubr
            return
          </CharString>
          <CharString index="496">
            402 callgsubr
            7 -3 return
          </CharString>
          <CharString index="497">
            -52 12 -26 48 27 16 8 49 17 vhcurveto
            return
          </CharString>
          <CharString index="498">
            -78 callgsubr
            endchar
          </CharString>
          <CharString index="499">
            hlineto
            62 33 -34 -62 hvcurveto
            return
          </CharString>
          <CharString index="500">
            -21 -73 hvcurveto
            -72 vlineto
            -71 return
          </CharString>
          <CharString index="501">
            vlineto
            544 callgsubr
            return
          </CharString>
          <CharString index="502">
            -46 -34 -75 hvcurveto
            return
          </CharString>
          <CharString index="503">
            13 callsubr
            -123 vlineto
            return
          </CharString>
          <CharString index="504">
            -5 -4 446 callsubr
            return
          </CharString>
          <CharString index="505">
            vlineto
            -9 4 -3 7 vhcurveto
            25 -19 callsubr
            return
          </CharString>
          <CharString index="506">
            30 17 43 hvcurveto
            12 vlineto
            45 -28 16 -50 vhcurveto
            4 vlineto
            return
          </CharString>
          <CharString index="507">
            -6 -2 -3 -8 vhcurveto
            -181 hlineto
            return
          </CharString>
          <CharString index="508">
            vhcurveto
            -14 595 callgsubr
            -7 hvcurveto
            return
          </CharString>
          <CharString index="509">
            hlineto
            6 -1 2 -3 -5 vvcurveto
            return
          </CharString>
          <CharString index="510">
            5 -7 hhcurveto
            -24 hlineto
            return
          </CharString>
          <CharString index="511">
            -63 475 callsubr
            return
          </CharString>
          <CharString index="512">
            -87 54 -56 88 vhcurveto
            return
          </CharString>
          <CharString index="513">
            -4 hlineto
            -26 -14 return
          </CharString>
          <CharString index="514">
            hhcurveto
            -85 hlineto
            339 callgsubr
            -22 188 callsubr
            85 hlineto
            50 39 -22 -73 hvcurveto
            return
          </CharString>
          <CharString index="515">
            415 callsubr
            3 return
          </CharString>
          <CharString index="516">
            -322 111 callgsubr
            return
          </CharString>
          <CharString index="517">
            -108 436 callsubr
            return
          </CharString>
          <CharString index="518">
            -19 callgsubr
            75 -106 callsubr
            endchar
          </CharString>
          <CharString index="519">
            2 4 8 -4 hvcurveto
            endchar
          </CharString>
          <CharString index="520">
            hlineto
            -7 -3 -3 return
          </CharString>
          <CharString index="521">
            rmoveto
            22 209 callgsubr
            return
          </CharString>
          <CharString index="522">
            277 callsubr
            4 return
          </CharString>
          <CharString index="523">
            -3 10 vhcurveto
            19 -9 callsubr
            15 vlineto
            50 10 21 45 45 10 -22 -50 vhcurveto
            return
          </CharString>
          <CharString index="524">
            6 vhcurveto
            30 hlineto
            10 7 5 4 5 hvcurveto
            2 2 return
          </CharString>
          <CharString index="525">
            10 2 4 7 hvcurveto
            21 vlineto
            8 -2 3 -10 vhcurveto
            return
          </CharString>
          <CharString index="526">
            50 496 callsubr
            2 3 8 vhcurveto
            return
          </CharString>
          <CharString index="527">
            -9 4 -3 8 vhcurveto
            23 hlineto
            8 -96 callgsubr
            return
          </CharString>
          <CharString index="528">
            -43 83 vhcurveto
            100 -4 hlineto
            0 -30 -18 -43 -36 vhcurveto
            return
          </CharString>
          <CharString index="529">
            -68 -26 388 callsubr
            return
          </CharString>
          <CharString index="530">
            19 530 callsubr
            return
          </CharString>
          <CharString index="531">
            -50 -43 -89 hvcurveto
            -42 vlineto
            -9 4 -3 return
          </CharString>
          <CharString index="532">
            -4 7 503 callsubr
            return
          </CharString>
          <CharString index="533">
            hhcurveto
            24 hlineto
            6 4 592 callsubr
            return
          </CharString>
          <CharString index="534">
            128 rlineto
            5 hlineto
            94 -128 rlineto
            return
          </CharString>
          <CharString index="535">
            rlineto
            9 -2 504 callsubr
            return
          </CharString>
          <CharString index="536">
            hlineto
            8 482 callgsubr
            return
          </CharString>
          <CharString index="537">
            hlineto
            13 10 9 15 hvcurveto
            return
          </CharString>
          <CharString index="538">
            vlineto
            -6 -3 -4 -7 vhcurveto
            return
          </CharString>
          <CharString index="539">
            vlineto
            -5 595 callsubr
            return
          </CharString>
          <CharString index="540">
            -9 5 -3 7 vhcurveto
            return
          </CharString>
          <CharString index="541">
            45 36 75 hvcurveto
            return
          </CharString>
          <CharString index="542">
            43 callgsubr
            2 494 callsubr
            return
          </CharString>
          <CharString index="543">
            hlineto
            -64 callgsubr
            return
          </CharString>
          <CharString index="544">
            -3 7 vhcurveto
            25 hlineto
            487 callgsubr
            return
          </CharString>
          <CharString index="545">
            rmoveto
            -62 381 callgsubr
            211 vlineto
            226 -259 rlineto
            -32 -15 -30 -17 -43 hhcurveto
            return
          </CharString>
          <CharString index="546">
            4 2 9 hvcurveto
            return
          </CharString>
          <CharString index="547">
            347 callgsubr
            6 vhcurveto
            14 hlineto
            5 3 2 8 hvcurveto
            41 vlineto
            return
          </CharString>
          <CharString index="548">
            -24 callsubr
            250 -97 callgsubr
            return
          </CharString>
          <CharString index="549">
            400 callsubr
            -64 -33 -40 return
          </CharString>
          <CharString index="550">
            99 vhcurveto
            83 310 callgsubr
            return
          </CharString>
          <CharString index="551">
            582 callsubr
            22 vlineto
            7 -3 return
          </CharString>
          <CharString index="552">
            259 123 callsubr
            return
          </CharString>
          <CharString index="553">
            3 7 hvcurveto
            225 vlineto
            6 230 callgsubr
            return
          </CharString>
          <CharString index="554">
            596 callgsubr
            -3 4 hvcurveto
            return
          </CharString>
          <CharString index="555" raw="1">
            8ff88d0a 0b  
          </CharString>
          <CharString index="556">
            9 572 callgsubr
            return
          </CharString>
          <CharString index="557">
            297 callsubr
            55 return
          </CharString>
          <CharString index="558">
            -4 -4 -8 hvcurveto
            return
          </CharString>
          <CharString index="559">
            -117 vlineto
            -88 return
          </CharString>
          <CharString index="560">
            -35 -2 callsubr
            return
          </CharString>
          <CharString index="561">
            58 hvcurveto
            165 517 callsubr
            return
          </CharString>
          <CharString index="562">
            hvcurveto
            19 516 callgsubr
            endchar
          </CharString>
          <CharString index="563">
            -88 56 -66 99 vhcurveto
            124 hlineto
            return
          </CharString>
          <CharString index="564">
            24 55 hvcurveto
            25 vlineto
            9 -4 3 return
          </CharString>
          <CharString index="565">
            504 callgsubr
            vlineto
            return
          </CharString>
          <CharString index="566">
            hlineto
            52 42 19 35 17 hvcurveto
            4 return
          </CharString>
          <CharString index="567">
            hlineto
            369 callsubr
            return
          </CharString>
          <CharString index="568">
            hlineto
            472 callgsubr
            return
          </CharString>
          <CharString index="569">
            rmoveto
            -7 49 callsubr
            return
          </CharString>
          <CharString index="570">
            rmoveto
            -82 callgsubr
            return
          </CharString>
          <CharString index="571">
            vhcurveto
            -204 hlineto
            return
          </CharString>
          <CharString index="572">
            -109 rlineto
            -6 return
          </CharString>
          <CharString index="573">
            -355 vlineto
            -63 return
          </CharString>
          <CharString index="574">
            18 2 16 6 13 vhcurveto
            215 -220 rlineto
            -27 -14 -29 -14 -39 hhcurveto
            return
          </CharString>
          <CharString index="575">
            rmoveto
            -66 -41 -47 -74 548 callsubr
            return
          </CharString>
          <CharString index="576" raw="1">
            1ea20693 2b1df701 0b 
          </CharString>
          <CharString index="577">
            157 callgsubr
            4 160 vlineto
            7 return
          </CharString>
          <CharString index="578">
            18 -32 45 -16 vhcurveto
            return
          </CharString>
          <CharString index="579">
            591 callsubr
            4 return
          </CharString>
          <CharString index="580">
            9 -4 3 -7 vhcurveto
            return
          </CharString>
          <CharString index="581">
            rmoveto
            7 -5 -5 2 return
          </CharString>
          <CharString index="582">
            -32 -36 -62 vhcurveto
            return
          </CharString>
          <CharString index="583">
            vlineto
            41 -12 244 callgsubr
            return
          </CharString>
          <CharString index="584">
            -97 callgsubr
            -156 vlineto
            174 callsubr
            -50 hlineto
            return
          </CharString>
          <CharString index="585">
            17 callgsubr
            2 -4 6 hhcurveto
            return
          </CharString>
          <CharString index="586">
            4 4 6 4 558 callgsubr
            18 -5 17 19 vvcurveto
            34 return
          </CharString>
          <CharString index="587">
            182 callsubr
            endchar
          </CharString>
          <CharString index="588">
            37 31 9 26 return
          </CharString>
          <CharString index="589">
            -45 hhcurveto
            -55 -41 return
          </CharString>
          <CharString index="590">
            -20 -34 -55 vvcurveto
            return
          </CharString>
          <CharString index="591">
            vlineto
            -76 43 -32 return
          </CharString>
          <CharString index="592">
            145 callsubr
            158 197 callsubr
            -8 hlineto
            return
          </CharString>
          <CharString index="593">
            240 -99 callgsubr
            return
          </CharString>
          <CharString index="594">
            -99 callgsubr
            447 return
          </CharString>
          <CharString index="595">
            398 callgsubr
            18 3 return
          </CharString>
          <CharString index="596">
            375 rmoveto
            9 3 4 8 -28 callsubr
            return
          </CharString>
          <CharString index="597">
            -35 -38 -63 vhcurveto
            -79 hlineto
            -63 -35 38 return
          </CharString>
          <CharString index="598">
            163 callsubr
            87 vlineto
            74 33 23 return
          </CharString>
          <CharString index="599">
            -8 533 callsubr
            return
          </CharString>
          <CharString index="600">
            -23 559 callsubr
            23 16 return
          </CharString>
          <CharString index="601">
            -4 7 hhcurveto
            20 hlineto
            6 6 3 6 return
          </CharString>
          <CharString index="602">
            -1 3 -2 8 hvcurveto
            -6 18 -4 17 return
          </CharString>
          <CharString index="603">
            41 90 hvcurveto
            157 vlineto
            6 return
          </CharString>
          <CharString index="604">
            451 callsubr
            -21 vlineto
            -7 return
          </CharString>
          <CharString index="605">
            157 callgsubr
            4 vlineto
            return
          </CharString>
          <CharString index="606">
            hlineto
            57 40 21 39 21 hvcurveto
            return
          </CharString>
          <CharString index="607">
            hhcurveto
            -5 -4 -5 -5 -5 hvcurveto
            return
          </CharString>
          <CharString index="608">
            32 63 hvcurveto
            125 vlineto
            64 return
          </CharString>
          <CharString index="609">
            465 callsubr
            -4 1 -5 return
          </CharString>
          <CharString index="610">
            609 callgsubr
            5 3 6 return
          </CharString>
          <CharString index="611">
            -4 3 -7 hhcurveto
            -31 hlineto
            return
          </CharString>
          <CharString index="612" raw="1">
            88921eaa 06920b  
          </CharString>
          <CharString index="613">
            hlineto
            541 callsubr
            return
          </CharString>
          <CharString index="614">
            vhcurveto
            -25 hlineto
            -7 -4 -3 return
          </CharString>
          <CharString index="615">
            vlineto
            -7 3 -4 8 vhcurveto
            return
          </CharString>
          <CharString index="616">
            610 callsubr
            24 hlineto
            return
          </CharString>
          <CharString index="617">
            31 176 callgsubr
            8 return
          </CharString>
          <CharString index="618">
            60 34 33 61 vhcurveto
            return
          </CharString>
          <CharString index="619">
            -14 -9 -28 -41 vvcurveto
            return
          </CharString>
          <CharString index="620">
            hlineto
            -85 -55 -54 -87 hvcurveto
            -361 vlineto
            -87 55 -54 85 vhcurveto
            return
          </CharString>
          <CharString index="621">
            -40 -55 552 callgsubr
            return
          </CharString>
          <CharString index="622">
            3 6 4 579 callsubr
            -4 4 -6 hhcurveto
            return
          </CharString>
          <CharString index="623">
            vhcurveto
            -3 -1 -137 214 rlineto
            8 -5 -4 3 -11 hhcurveto
            return
          </CharString>
          <CharString index="624">
            206 callgsubr
            2 3 7 vhcurveto
            return
          </CharString>
          <CharString index="625">
            19 callsubr
            359 hlineto
            10 2 12 callsubr
            return
          </CharString>
          <CharString index="626">
            -96 callgsubr
            109 4 vlineto
            -26 16 31 -8 37 hhcurveto
            return
          </CharString>
          <CharString index="627">
            hvcurveto
            -56 hlineto
            -9 158 callgsubr
            -38 vlineto
            -98 52 -58 return
          </CharString>
          <CharString index="628">
            593 callsubr
            8 456 callgsubr
            return
          </CharString>
          <CharString index="629">
            42 94 hvcurveto
            76 vlineto
            43 498 callsubr
            return
          </CharString>
          <CharString index="630">
            -73 459 callgsubr
            19 hlineto
            77 54 return
          </CharString>
          <CharString index="631">
            hlineto
            10 -96 callgsubr
            18 vlineto
            8 -3 5 -10 vhcurveto
            return
          </CharString>
          <CharString index="632">
            1 hvcurveto
            1 vlineto
            69 vlineto
            5 2 4 7 vhcurveto
            214 return
          </CharString>
          <CharString index="633">
            hlineto
            -58 -24 18 50 hvcurveto
            4 vlineto
            51 24 18 61 vhcurveto
            return
          </CharString>
          <CharString index="634">
            hvcurveto
            11 -183 rlineto
            -8 5 -5 7 vhcurveto
            5 hlineto
            7 return
          </CharString>
          <CharString index="635">
            hlineto
            64 47 callgsubr
            -27 -21 -60 vhcurveto
            return
          </CharString>
          <CharString index="636">
            -4 -8 460 callgsubr
            60 hlineto
            64 return
          </CharString>
          <CharString index="637">
            23 41 vhcurveto
            171 hlineto
            7 3 return
          </CharString>
          <CharString index="638">
            -19 callgsubr
            184 return
          </CharString>
          <CharString index="639">
            -4 vlineto
            -40 406 callgsubr
            return
          </CharString>
          <CharString index="640">
            3 6 -3 7 hhcurveto
            20 hlineto
            7 return
          </CharString>
          <CharString index="641">
            416 rmoveto
            174 callsubr
            return
          </CharString>
          <CharString index="642">
            143 rmoveto
            229 callsubr
            return
          </CharString>
          <CharString index="643">
            vhcurveto
            -29 hlineto
            32 callsubr
            return
          </CharString>
          <CharString index="644">
            581 366 callsubr
            return
          </CharString>
          <CharString index="645">
            -94 callgsubr
            -350 vlineto
            -64 return
          </CharString>
          <CharString index="646">
            8 3 4 7 hvcurveto
            return
          </CharString>
          <CharString index="647">
            0 vlineto
            0 vlineto
            0 return
          </CharString>
          <CharString index="648">
            10 3 12 callsubr
            return
          </CharString>
          <CharString index="649">
            vhcurveto
            134 hlineto
            8 return
          </CharString>
          <CharString index="650">
            17 32 15 hvcurveto
            4 return
          </CharString>
          <CharString index="651">
            -120 hlineto
            -9 return
          </CharString>
          <CharString index="652">
            -35 -24 -54 vhcurveto
            return
          </CharString>
          <CharString index="653">
            -28 24 55 hvcurveto
            return
          </CharString>
          <CharString index="654">
            -1 -5 -2 hvcurveto
            return
          </CharString>
          <CharString index="655">
            459 callgsubr
            20 hlineto
            76 54 return
          </CharString>
          <CharString index="656">
            hlineto
            -75 -36 37 83 hvcurveto
            20 hlineto
            77 54 30 86 return
          </CharString>
          <CharString index="657">
            135 callgsubr
            -5 3 -4 7 vhcurveto
            return
          </CharString>
          <CharString index="658">
            14 11 9 16 hvcurveto
            99 -19 callgsubr
            return
          </CharString>
          <CharString index="659">
            -7 3 597 callsubr
            return
          </CharString>
          <CharString index="660">
            -16 -17 -30 -42 vvcurveto
            -26 vlineto
            -75 45 -37 84 vhcurveto
            return
          </CharString>
          <CharString index="661">
            vlineto
            -9 4 -3 7 vhcurveto
            endchar
          </CharString>
          <CharString index="662">
            -28 -41 vvcurveto
            -33 vlineto
            -52 return
          </CharString>
          <CharString index="663">
            -7 vhcurveto
            -26 hlineto
            -7 -4 return
          </CharString>
          <CharString index="664">
            hlineto
            -8 -4 -4 -9 hvcurveto
            return
          </CharString>
          <CharString index="665">
            590 callsubr
            6 vhcurveto
            return
          </CharString>
          <CharString index="666">
            16 52 hvcurveto
            13 vlineto
            52 return
          </CharString>
          <CharString index="667">
            hlineto
            8 216 callgsubr
            return
          </CharString>
          <CharString index="668">
            -18 -51 hvcurveto
            -26 vlineto
            -51 return
          </CharString>
          <CharString index="669">
            vlineto
            -6 -2 -4 -7 vhcurveto
            return
          </CharString>
          <CharString index="670">
            hlineto
            541 callgsubr
            return
          </CharString>
          <CharString index="671">
            595 callgsubr
            -8 hvcurveto
            return
          </CharString>
          <CharString index="672">
            hhcurveto
            587 callsubr
            return
          </CharString>
          <CharString index="673">
            vlineto
            50 24 15 57 vhcurveto
            return
          </CharString>
          <CharString index="674">
            vlineto
            59 23 29 return
          </CharString>
          <CharString index="675">
            hlineto
            -63 -34 35 return
          </CharString>
          <CharString index="676">
            -212 hlineto
            -9 return
          </CharString>
          <CharString index="677">
            -27 -21 -60 vhcurveto
            return
          </CharString>
          <CharString index="678" raw="1">
            8f87921b 0b  
          </CharString>
          <CharString index="679">
            -18 vhcurveto
            -4 vlineto
            return
          </CharString>
          <CharString index="680">
            321 callsubr
            2 5 1 vhcurveto
            return
          </CharString>
          <CharString index="681">
            hlineto
            -9 -6 -3 -4 -6 hvcurveto
            -126 -71 rlineto
            return
          </CharString>
          <CharString index="682">
            384 rmoveto
            400 callsubr
            return
          </CharString>
          <CharString index="683">
            241 callgsubr
            3 3 2 5 2 vhcurveto
            return
          </CharString>
          <CharString index="684">
            494 callgsubr
            -45 hlineto
            return
          </CharString>
          <CharString index="685">
            -582 rlineto
            -8 -4 2 -7 9 hhcurveto
            endchar
          </CharString>
          <CharString index="686">
            hvcurveto
            80 475 callgsubr
            return
          </CharString>
          <CharString index="687">
            0 vlineto
            540 callsubr
            return
          </CharString>
          <CharString index="688">
            -54 -88 hvcurveto
            -359 vlineto
            -88 return
          </CharString>
          <CharString index="689">
            56 95 callsubr
            return
          </CharString>
          <CharString index="690">
            20 vlineto
            80 49 37 90 hvcurveto
            return
          </CharString>
          <CharString index="691">
            5 vhcurveto
            11 34 22 43 hhcurveto
            return
          </CharString>
          <CharString index="692">
            -43 -73 vhcurveto
            -81 hlineto
            return
          </CharString>
          <CharString index="693">
            -2 4 -3 9 hvcurveto
            return
          </CharString>
          <CharString index="694">
            27 176 callgsubr
            return
          </CharString>
          <CharString index="695">
            -88 56 -66 100 vhcurveto
            return
          </CharString>
          <CharString index="696">
            97 rlineto
            5 -2 return
          </CharString>
          <CharString index="697">
            vvcurveto
            -5 4 -4 return
          </CharString>
          <CharString index="698">
            hhcurveto
            21 hlineto
            6 return
          </CharString>
          <CharString index="699">
            1 5 2 hvcurveto
            return
          </CharString>
          <CharString index="700">
            hlineto
            9 3 3 return
          </CharString>
          <CharString index="701">
            8 vhcurveto
            30 hlineto
            return
          </CharString>
          <CharString index="702">
            -2 -4 -8 vhcurveto
            return
          </CharString>
          <CharString index="703">
            3 -4 7 vhcurveto
            return
          </CharString>
          <CharString index="704">
            -2 5 vhcurveto
            15 hlineto
            6 3 2 7 hvcurveto
            return
          </CharString>
          <CharString index="705">
            vhcurveto
            51 hlineto
            37 31 449 callsubr
            return
          </CharString>
          <CharString index="706">
            -4 -10 hvcurveto
            -7 vlineto
            -82 40 -40 80 vhcurveto
            return
          </CharString>
          <CharString index="707">
            hlineto
            -73 -37 366 callgsubr
            81 return
          </CharString>
          <CharString index="708">
            29 394 callgsubr
            -4 vlineto
            0 return
          </CharString>
          <CharString index="709">
            -52 12 -26 47 27 17 8 49 16 vhcurveto
            return
          </CharString>
          <CharString index="710">
            -35 -17 -30 -14 hvcurveto
            -4 138 hlineto
            6 return
          </CharString>
          <CharString index="711">
            hlineto
            18 callsubr
            4 return
          </CharString>
          <CharString index="712">
            hvcurveto
            -56 87 callsubr
            -37 vlineto
            return
          </CharString>
          <CharString index="713">
            vlineto
            -61 365 callgsubr
            -87 -55 return
          </CharString>
          <CharString index="714">
            hlineto
            57 33 24 28 14 hvcurveto
            4 -35 hlineto
            return
          </CharString>
          <CharString index="715">
            99 vhcurveto
            83 hlineto
            return
          </CharString>
          <CharString index="716" raw="1">
            70068487 0b  
          </CharString>
          <CharString index="717">
            3 -2 6 vhcurveto
            return
          </CharString>
        <CharString name=".notdef">
          254 176 hmoveto
          399 701 -399 hlineto
          59 -55 rmoveto
          281 -591 -281 hlineto
          endchar
        </CharString>
        <CharString name="A">
          36 -79 callgsubr
          endchar
        </CharString>
        <CharString name="AE">
          276 373 589 rmoveto
          4 -370 -207 hlineto
          -128 -219 rmoveto
          7 4 3 9 5 hvcurveto
          89 160 rlineto
          230 -160 hlineto
          -9 4 -3 7 vhcurveto
          309 hlineto
          9 2 4 7 171 callgsubr
          -260 312 callsubr
          242 -19 callgsubr
          232 103 callgsubr
          -232 312 callsubr
          230 -19 callgsubr
          260 hlineto
          9 2 4 7 171 callgsubr
          -338 hlineto
          -8 -5 -3 -9 -5 hvcurveto
          -339 -619 rlineto
          -8 -3 2 -4 7 hhcurveto
          endchar
        </CharString>
        <CharString name="Aacute">
          35 -79 callgsubr
          299 836 90 callgsubr
        </CharString>
        <CharString name="Abreve">
          35 -79 callgsubr
          129 826 rmoveto
          -12 vlineto
          320 callgsubr
          -6 vhcurveto
          -17 hlineto
          -5 351 callsubr
          -5 -4 -2 -8 hvcurveto
          endchar
        </CharString>
        <CharString name="Acircumflex">
          35 -79 callgsubr
          260 827 rmoveto
          7 -5 -6 2 -9 hhcurveto
          -22 hlineto
          -9 -5 -2 -7 -5 hvcurveto
          -64 502 callsubr
          8 426 callsubr
          53 97 54 207 callgsubr
          7 349 callsubr
        </CharString>
        <CharString name="Adieresis">
          35 -79 callgsubr
          286 173 callsubr
        </CharString>
        <CharString name="Agrave">
          35 -79 callgsubr
          177 825 321 callgsubr
          -44 hlineto
          -7 -4 227 callsubr
          21 hlineto
          6 412 callsubr
        </CharString>
        <CharString name="Amacron">
          35 -79 callgsubr
          331 752 rmoveto
          8 3 4 6 hvcurveto
          19 128 callsubr
          -203 hlineto
          -89 callsubr
          -6 -57 callgsubr
          endchar
        </CharString>
        <CharString name="Aogonek">
          35 149 217 rmoveto
          115 371 rlineto
          4 hlineto
          116 -371 rlineto
          -80 414 rmoveto
          9 -3 -4 3 -7 hhcurveto
          -47 379 callsubr
          569 callgsubr
          -619 rlineto
          -9 -3 3 -3 7 hhcurveto
          31 hlineto
          7 3 3 9 3 hvcurveto
          54 160 rlineto
          262 hlineto
          52 -154 -64 -84 414 callgsubr
          26 hlineto
          7 2 3 9 -2 hvcurveto
          endchar
        </CharString>
        <CharString name="Aring">
          35 -79 callgsubr
          222 722 rmoveto
          -31 -15 17 34 hvcurveto
          21 vlineto
          33 15 17 31 vhcurveto
          11 hlineto
          32 15 -17 -33 hvcurveto
          -21 vlineto
          -34 -15 -17 -32 vhcurveto
          4 -27 rmoveto
          46 28 26 47 hvcurveto
          31 vlineto
          47 -28 26 -46 vhcurveto
          -19 hlineto
          -47 -25 -26 -47 hvcurveto
          -31 vlineto
          -47 25 -26 47 vhcurveto
          endchar
        </CharString>
        <CharString name="Atilde">
          35 -79 callgsubr
          242 759 rmoveto
          32 12 3 10 19 hhcurveto
          24 5 440 callsubr
          51 -12 26 -47 -30 -12 -9 -40 -15 vhcurveto
          -40 -16 -5 -9 -16 435 callgsubr
          -39 vlineto
          602 callsubr
          endchar
        </CharString>
        <CharString name="B">
          49 85 12 rmoveto
          -9 4 -3 6 vhcurveto
          240 hlineto
          86 55 51 88 hvcurveto
          70 vlineto
          72 -47 42 -46 3 vhcurveto
          47 14 39 35 68 vvcurveto
          61 506 callgsubr
          -233 579 callgsubr
          -283 rmoveto
          -7 230 callsubr
          233 vlineto
          6 230 callgsubr
          179 392 callsubr
          -59 vlineto
          -62 -36 -34 -62 vhcurveto
          -176 -304 rmoveto
          -7 230 callsubr
          243 vlineto
          5 230 callgsubr
          177 hlineto
          71 33 -33 -62 hvcurveto
          -69 vlineto
          -62 -33 -34 -62 vhcurveto
          endchar
        </CharString>
        <CharString name="C">
          45 341 hmoveto
          28 callgsubr
        </CharString>
        <CharString name="CR">
          -230 endchar
        </CharString>
        <CharString name="Cacute">
          45 274 callgsubr
          -40 -836 rmoveto
          28 callgsubr
        </CharString>
        <CharString name="Ccaron">
          45 289 707 rmoveto
          10 375 callgsubr
          -54 97 rlineto
          5 -2 -4 1 -6 294 callgsubr
          73 -707 rmoveto
          28 callgsubr
        </CharString>
        <CharString name="Ccedilla">
          45 470 440 rmoveto
          8 216 callgsubr
          49 vlineto
          88 370 callgsubr
          -126 hlineto
          -86 -54 581 callsubr
          54 -54 86 vhcurveto
          63 hlineto
          -41 -45 rlineto
          -17 -15 8 -23 24 hhcurveto
          12 hlineto
          40 13 -8 -25 hvcurveto
          -2 vlineto
          -24 -14 -8 -39 vhcurveto
          -20 hlineto
          -8 -2 -3 -7 hvcurveto
          -12 vlineto
          -7 2 -4 8 vhcurveto
          25 hlineto
          53 29 18 42 hvcurveto
          12 vlineto
          45 -27 16 -51 vhcurveto
          4 vlineto
          46 48 rlineto
          20 253 callsubr
          49 vlineto
          9 483 callgsubr
          -28 hlineto
          32 callsubr
          -47 vlineto
          -63 -33 -36 -62 vhcurveto
          -117 hlineto
          107 callgsubr
          570 callgsubr
          33 36 61 vhcurveto
          117 hlineto
          62 316 callsubr
          -47 554 callsubr
        </CharString>
        <CharString name="D">
          159 callgsubr
          endchar
        </CharString>
        <CharString name="Dcaron">
          159 callgsubr
          -73 662 rmoveto
          21 209 callgsubr
          -6 -4 547 callsubr
          -54 -97 -53 97 rlineto
          5 -3 -3 1 -7 hhcurveto
          -23 113 callsubr
          endchar
        </CharString>
        <CharString name="Dcroat">
          375 callsubr
          -230 vlineto
          -5 194 callgsubr
          -42 461 callsubr
          -21 vlineto
          -7 2 -3 9 vhcurveto
          42 -92 callgsubr
          -330 175 callsubr
          49 45 462 callsubr
          288 -19 callgsubr
          148 hlineto
          8 3 3 7 hvcurveto
          21 128 callsubr
          -148 hlineto
          -7 -2 3 5 hvcurveto
          188 385 callsubr
        </CharString>
        <CharString name="E">
          -16 -80 callgsubr
          endchar
        </CharString>
        <CharString name="Eacute">
          -16 -80 callgsubr
          213 836 90 callgsubr
        </CharString>
        <CharString name="Ecaron">
          -16 -80 callgsubr
          145 707 414 callsubr
          -7 -3 547 callsubr
          -54 326 callsubr
        </CharString>
        <CharString name="Ecircumflex">
          -16 -80 callgsubr
          185 827 102 callsubr
          54 97 53 207 callgsubr
          8 1 5 6 -4 hvcurveto
          endchar
        </CharString>
        <CharString name="Edieresis">
          -16 -80 callgsubr
          212 719 69 callsubr
        </CharString>
        <CharString name="Edotaccent">
          -1 -80 callgsubr
          130 723 rmoveto
          -8 429 callgsubr
          6 4 3 8 hvcurveto
          99 vlineto
          471 callgsubr
          -30 219 callgsubr
          hvcurveto
          endchar
        </CharString>
        <CharString name="Egrave">
          -16 -80 callgsubr
          117 825 321 callgsubr
          -45 hlineto
          -6 -4 227 callsubr
          21 hlineto
          6 412 callsubr
        </CharString>
        <CharString name="Emacron">
          -16 -80 callgsubr
          256 752 rmoveto
          9 2 4 6 hvcurveto
          19 162 callsubr
          -203 hlineto
          -8 -104 callsubr
          -6 3 -4 8 vhcurveto
          endchar
        </CharString>
        <CharString name="Eogonek">
          -16 404 598 rmoveto
          -29 callsubr
          -309 5 callgsubr
          223 hlineto
          -50 -66 rlineto
          -20 -15 7 -20 33 hhcurveto
          39 34 10 13 10 -5 3 -22 hvcurveto
          -39 hlineto
          53 70 rlineto
          51 -4 callgsubr
          -259 hlineto
          -7 230 callsubr
          242 vlineto
          6 230 callgsubr
          231 103 callgsubr
          -231 hlineto
          -7 230 callsubr
          230 vlineto
          6 230 callgsubr
          endchar
        </CharString>
        <CharString name="Eth">
          375 callsubr
          -276 100 callgsubr
          -42 461 callsubr
          -20 187 callsubr
          42 hlineto
          7 3 -3 -5 hvcurveto
          -284 175 callsubr
          49 45 462 callsubr
          242 vlineto
          5 10 callsubr
          148 hlineto
          539 callsubr
          20 128 callsubr
          -148 312 callsubr
          234 385 callsubr
        </CharString>
        <CharString name="Euro">
          26 314 hmoveto
          86 55 51 88 hvcurveto
          27 vlineto
          -21 callgsubr
          -7 -3 25 callgsubr
          -26 vlineto
          -62 -33 -34 -62 vhcurveto
          -56 hlineto
          -62 -33 34 62 hvcurveto
          99 158 vlineto
          9 3 12 callsubr
          17 395 callgsubr
          -158 82 158 95 callsubr
          18 -56 callsubr
          -158 102 hlineto
          62 33 34 62 vhcurveto
          56 392 callsubr
          -26 561 callgsubr
          29 -19 callsubr
          27 506 callgsubr
          -65 hlineto
          -85 -55 -51 -88 hvcurveto
          -103 -61 vlineto
          -9 158 callgsubr
          -18 -78 callgsubr
          61 -82 -61 hlineto
          -9 -3 -3 -8 hvcurveto
          -17 19 callsubr
          61 -100 hlineto
          -88 55 -51 85 vhcurveto
          endchar
        </CharString>
        <CharString name="F">
          -38 457 callgsubr
          272 vlineto
          5 230 callgsubr
          231 hlineto
          539 callsubr
          212 callsubr
          -231 hlineto
          -7 -3 3 5 hvcurveto
          243 vlineto
          6 230 callgsubr
          258 -4 callgsubr
          -308 5 callgsubr
          endchar
        </CharString>
        <CharString name="G">
          7 callsubr
          endchar
        </CharString>
        <CharString name="Gbreve">
          7 callsubr
          -45 826 rmoveto
          -12 vlineto
          -74 32 -33 62 vhcurveto
          11 490 callgsubr
          -3 2 -6 274 callsubr
        </CharString>
        <CharString name="H">
          73 457 callgsubr
          283 vlineto
          6 230 callgsubr
          280 -92 callgsubr
          -283 561 callgsubr
          29 180 callsubr
          -29 219 callgsubr
          hvcurveto
          -273 100 callgsubr
          -280 hlineto
          -7 230 callsubr
          273 132 callgsubr
          endchar
        </CharString>
        <CharString name="I">
          -267 140 631 38 callsubr
          endchar
        </CharString>
        <CharString name="Iacute">
          140 631 38 callsubr
          41 824 90 callgsubr
        </CharString>
        <CharString name="Icircumflex">
          -268 140 631 38 callsubr
          5 815 167 callgsubr
          8 hhcurveto
          23 hlineto
          6 4 592 callsubr
          54 97 53 -97 rlineto
          -5 3 3 -1 6 hhcurveto
          24 hlineto
          8 349 callsubr
        </CharString>
        <CharString name="Idieresis">
          -267 140 631 38 callsubr
          32 707 69 callsubr
        </CharString>
        <CharString name="Idotaccent">
          -267 90 699 rmoveto
          210 callsubr
          -30 413 callsubr
          -8 hvcurveto
          50 -164 38 callsubr
          endchar
        </CharString>
        <CharString name="Igrave">
          -267 140 631 38 callsubr
          -73 813 rmoveto
          8 -4 -6 3 -8 226 callgsubr
          -4 hvcurveto
          endchar
        </CharString>
        <CharString name="Imacron">
          -267 140 631 38 callsubr
          76 740 191 callsubr
        </CharString>
        <CharString name="Iogonek">
          -267 100 643 rmoveto
          369 callgsubr
          -619 vlineto
          -3 0 -2 1 -2 vhcurveto
          -54 -71 414 callgsubr
          7 180 callsubr
          endchar
        </CharString>
        <CharString name="J">
          2 380 643 270 callsubr
          -487 vlineto
          -63 -33 -36 -62 vhcurveto
          -91 563 callsubr
          81 vlineto
          8 -4 3 -7 vhcurveto
          -29 197 callgsubr
          -83 vlineto
          587 callgsubr
          100 253 callsubr
          490 163 callgsubr
          endchar
        </CharString>
        <CharString name="K">
          108 callgsubr
          endchar
        </CharString>
        <CharString name="L">
          56 callgsubr
          endchar
        </CharString>
        <CharString name="Lacute">
          56 callgsubr
          81 836 67 callsubr
          -6 hhcurveto
          endchar
        </CharString>
        <CharString name="Lcaron">
          56 callgsubr
          267 632 244 callsubr
          -218 576 callsubr
          26 608 callgsubr
        </CharString>
        <CharString name="Lslash">
          7 421 hmoveto
          369 callsubr
          25 162 callsubr
          -269 312 callsubr
          349 vlineto
          101 57 rlineto
          8 4 3 5 7 vvcurveto
          26 vlineto
          6 -4 4 -7 -4 vhcurveto
          -101 -57 rlineto
          178 121 callsubr
          -207 vlineto
          -72 -41 rlineto
          -9 -5 -2 -4 -7 vvcurveto
          -26 vlineto
          -7 3 -3 8 4 vhcurveto
          72 41 rlineto
          -364 554 callsubr
        </CharString>
        <CharString name="M">
          199 350 198 rmoveto
          -4 hlineto
          -188 439 rlineto
          3 -1 -3 3 -5 hhcurveto
          -54 hlineto
          369 callgsubr
          -619 vlineto
          -10 4 -2 6 vhcurveto
          29 288 callgsubr
          555 4 vlineto
          180 -416 rlineto
          -8 3 3 -3 8 hhcurveto
          33 hlineto
          8 3 3 8 4 hvcurveto
          177 415 rlineto
          4 -554 hlineto
          -9 4 -3 7 vhcurveto
          29 367 callgsubr
          619 vlineto
          9 546 callgsubr
          -54 hlineto
          -5 -3 -3 -3 -1 hvcurveto
          endchar
        </CharString>
        <CharString name="N">
          1 callsubr
          endchar
        </CharString>
        <CharString name="NULL">
          -497 endchar
        </CharString>
        <CharString name="Nacute">
          1 callsubr
          268 836 478 callsubr
          21 hlineto
          6 6 3 6 4 412 callgsubr
        </CharString>
        <CharString name="Ncaron">
          82 281 707 189 callsubr
          -157 -707 rmoveto
          8 callgsubr
          endchar
        </CharString>
        <CharString name="Ntilde">
          1 callsubr
          207 759 rmoveto
          32 13 2 10 19 hhcurveto
          24 6 -13 -41 hvcurveto
          -34 vlineto
          -8 2 -2 6 vhcurveto
          14 hlineto
          6 3 2 8 hvcurveto
          41 vlineto
          51 -12 26 -48 -29 -13 -9 -40 -15 vhcurveto
          -40 -15 -5 -9 -17 hhcurveto
          -23 -6 13 40 hvcurveto
          33 vlineto
          7 -3 2 -5 401 callsubr
          -39 vlineto
          -52 13 -26 47 27 16 8 49 16 vhcurveto
          endchar
        </CharString>
        <CharString name="O">
          -62 callsubr
          endchar
        </CharString>
        <CharString name="OE">
          278 221 45 rmoveto
          541 callgsubr
          570 callgsubr
          381 callsubr
          140 5 callsubr
          -535 151 callgsubr
          -285 97 rmoveto
          587 callgsubr
          471 -4 callgsubr
          -257 hlineto
          -7 230 callsubr
          242 vlineto
          6 230 callgsubr
          229 hlineto
          9 2 4 7 171 callgsubr
          -229 hlineto
          -7 230 callsubr
          230 vlineto
          6 230 callgsubr
          257 -4 callgsubr
          -471 430 callgsubr
          endchar
        </CharString>
        <CharString name="Oacute">
          -62 callsubr
          2 791 324 callgsubr
          -4 5 -6 hhcurveto
          endchar
        </CharString>
        <CharString name="Ocircumflex">
          -62 callsubr
          -26 782 167 callgsubr
          7 hhcurveto
          24 hlineto
          6 4 231 callsubr
        </CharString>
        <CharString name="Odieresis">
          -62 callsubr
          674 vmoveto
          33 callsubr
        </CharString>
        <CharString name="Ograve">
          -62 callsubr
          -101 780 321 callgsubr
          -45 hlineto
          -6 -4 227 callsubr
          21 hlineto
          6 412 callsubr
        </CharString>
        <CharString name="Ohungarumlaut">
          -62 callsubr
          67 791 rmoveto
          -8 511 callgsubr
          -61 -106 rlineto
          -8 -5 2 425 callsubr
          4 579 callsubr
          -3 4 -7 hhcurveto
          -155 hmoveto
          -8 235 callgsubr
          5 3 6 5 579 callsubr
          -4 4 -7 hhcurveto
          endchar
        </CharString>
        <CharString name="Omacron">
          -62 callsubr
          44 707 191 callsubr
        </CharString>
        <CharString name="Oslash">
          62 431 499 rmoveto
          -355 505 callgsubr
          -115 hlineto
          -42 -29 17 30 -14 hvcurveto
          294 409 rlineto
          -304 -357 rmoveto
          570 callgsubr
          33 36 62 vhcurveto
          115 hlineto
          42 29 -17 -30 13 hvcurveto
          -294 -410 rlineto
          369 494 rmoveto
          -6 4 -6 -1 -5 -7 -26 -36 rcurveline
          31 -24 -39 17 -48 hhcurveto
          -125 172 callsubr
          -359 vlineto
          -21 3 -19 6 -17 vhcurveto
          -37 -52 -5 -7 1 -6 5 -4 rlinecurve
          12 -8 6 -4 6 1 5 6 rlinecurve
          27 37 rlineto
          -31 24 38 -17 49 hhcurveto
          125 hlineto
          85 55 54 88 hvcurveto
          359 vlineto
          22 -3 19 -6 17 vhcurveto
          36 51 5 7 0 5 -6 5 rlinecurve
          endchar
        </CharString>
        <CharString name="Otilde">
          -62 callsubr
          -44 714 rmoveto
          32 12 3 10 19 hhcurveto
          23 278 callsubr
          51 -12 26 -48 -29 -12 -9 -40 -15 vhcurveto
          -40 -16 330 callsubr
          -2 2 -6 401 callsubr
          -39 vlineto
          390 callsubr
          endchar
        </CharString>
        <CharString name="P">
          27 145 288 rmoveto
          -7 -3 3 5 hvcurveto
          293 vlineto
          6 230 callgsubr
          176 464 callgsubr
          -63 hvcurveto
          -113 vlineto
          -62 475 callsubr
          -197 -288 332 callgsubr
          222 vlineto
          5 230 callgsubr
          180 hlineto
          189 callgsubr
          117 vlineto
          88 -55 54 -86 vhcurveto
          -230 5 callgsubr
          endchar
        </CharString>
        <CharString name="Q">
          59 416 -133 rmoveto
          7 5 4 9 -5 hvcurveto
          -75 121 rlineto
          81 3 51 53 85 vvcurveto
          359 vlineto
          88 -55 54 -86 vhcurveto
          -122 hlineto
          -86 -55 581 callsubr
          55 -54 86 vhcurveto
          77 hlineto
          74 -121 rlineto
          -10 6 5 -2 9 hhcurveto
          -167 178 rmoveto
          541 callgsubr
          570 callgsubr
          381 callsubr
          114 48 callsubr
          endchar
        </CharString>
        <CharString name="R">
          37 145 -57 callsubr
          endchar
        </CharString>
        <CharString name="Racute">
          37 145 -57 callsubr
          214 836 67 callsubr
          -7 hhcurveto
          endchar
        </CharString>
        <CharString name="Rcaron">
          37 145 -57 callsubr
          147 707 335 callgsubr
          -54 589 callsubr
          -3 1 -7 294 callgsubr
          endchar
        </CharString>
        <CharString name="S">
          65 81 142 -34 callsubr
        </CharString>
        <CharString name="Sacute">
          65 274 callgsubr
          -300 -694 -34 callsubr
        </CharString>
        <CharString name="Scaron">
          65 290 707 rmoveto
          222 callgsubr
          -6 -4 547 callsubr
          -54 -97 -53 309 callsubr
          -24 113 callsubr
          -188 -565 -34 callsubr
        </CharString>
        <CharString name="T">
          20 callsubr
          endchar
        </CharString>
        <CharString name="Tcaron">
          20 callsubr
          4 707 414 callsubr
          -6 -4 547 callsubr
          -54 326 callsubr
        </CharString>
        <CharString name="Thorn">
          4 155 188 callgsubr
          112 -19 callgsubr
          116 hlineto
          86 54 54 87 hvcurveto
          94 vlineto
          88 370 callgsubr
          -116 312 callsubr
          112 121 callsubr
          -619 vlineto
          -9 4 -3 7 vhcurveto
          49 178 462 callsubr
          269 -19 callgsubr
          111 hlineto
          62 316 callsubr
          -90 vlineto
          -62 -33 -36 -62 vhcurveto
          endchar
        </CharString>
        <CharString name="U">
          -61 callgsubr
          endchar
        </CharString>
        <CharString name="Uacute">
          -61 callgsubr
          -125 193 67 callsubr
          -7 hhcurveto
          endchar
        </CharString>
        <CharString name="Ucircumflex">
          -61 callgsubr
          -154 184 102 callsubr
          53 97 54 232 callgsubr
        </CharString>
        <CharString name="Udieresis">
          -61 callgsubr
          -128 76 rmoveto
          33 callsubr
        </CharString>
        <CharString name="Ugrave">
          -61 callgsubr
          -223 182 293 callsubr
        </CharString>
        <CharString name="Uhungarumlaut">
          -61 callgsubr
          -65 193 rmoveto
          -8 235 callgsubr
          5 3 6 5 hvcurveto
          79 109 rlineto
          7 6 -4 4 -7 hhcurveto
          -154 hmoveto
          -9 235 callgsubr
          6 515 callsubr
          endchar
        </CharString>
        <CharString name="Umacron">
          -61 callgsubr
          -84 109 191 callsubr
        </CharString>
        <CharString name="Uogonek">
          55 433 643 270 callsubr
          -487 vlineto
          -63 -33 -36 -62 vhcurveto
          -103 hlineto
          107 callgsubr
          487 vlineto
          -74 callsubr
          -489 165 callsubr
          86 vhcurveto
          58 hlineto
          -50 -66 rlineto
          -20 -15 7 -20 33 hhcurveto
          39 35 10 13 10 -5 3 -23 hvcurveto
          -39 hlineto
          53 70 rlineto
          19 253 callsubr
          490 vlineto
          8 483 callgsubr
          endchar
        </CharString>
        <CharString name="Uring">
          -61 callgsubr
          -192 79 rmoveto
          -31 -14 17 34 hvcurveto
          21 vlineto
          33 14 17 32 vhcurveto
          11 hlineto
          32 14 -17 -33 hvcurveto
          -21 vlineto
          -34 -14 -17 -32 vhcurveto
          4 -27 rmoveto
          46 27 26 47 hvcurveto
          31 vlineto
          47 -27 26 -46 vhcurveto
          -20 hlineto
          -46 -25 -26 -47 hvcurveto
          -31 vlineto
          -47 25 -26 46 vhcurveto
          endchar
        </CharString>
        <CharString name="V">
          3 273 hmoveto
          7 4 3 9 2 hvcurveto
          186 619 497 callgsubr
          -31 hlineto
          -8 -3 -3 -9 -2 hvcurveto
          -167 -569 rlineto
          -4 hlineto
          -167 569 428 callsubr
          -8 -4 -3 -9 3 hvcurveto
          186 -619 270 callgsubr
          endchar
        </CharString>
        <CharString name="W">
          297 233 hmoveto
          7 4 4 8 2 hvcurveto
          149 564 rlineto
          4 hlineto
          148 -564 rlineto
          -8 2 5 -4 7 hhcurveto
          51 hlineto
          7 4 2 10 2 hvcurveto
          137 619 497 callgsubr
          -34 hlineto
          -7 -5 -2 -10 -2 hvcurveto
          -118 -574 rlineto
          -5 hlineto
          -153 575 rlineto
          9 -2 -5 2 -7 hhcurveto
          -38 hlineto
          -7 -4 -2 -9 -2 hvcurveto
          -152 -575 rlineto
          -5 hlineto
          -119 574 rlineto
          10 -2 -4 2 -7 hhcurveto
          -33 hlineto
          -8 -4 -4 -8 2 hvcurveto
          137 -619 rlineto
          -9 2 5 -3 7 hhcurveto
          endchar
        </CharString>
        <CharString name="X">
          7 414 10 rmoveto
          -7 4 5 -3 6 hhcurveto
          34 hlineto
          8 2 5 7 -4 hvcurveto
          -182 328 173 291 rlineto
          8 4 -4 4 -7 hhcurveto
          -33 hlineto
          -8 -4 -3 -9 -5 hvcurveto
          -148 -257 rlineto
          -4 hlineto
          -150 257 rlineto
          9 -4 -6 3 -8 hhcurveto
          -31 hlineto
          -7 -4 -5 -7 4 hvcurveto
          173 -292 -183 -327 rlineto
          -7 -3 2 -5 7 hhcurveto
          34 hlineto
          7 4 3 7 4 hvcurveto
          160 290 rlineto
          4 hlineto
          endchar
        </CharString>
        <CharString name="Y">
          55 callgsubr
          endchar
        </CharString>
        <CharString name="Yacute">
          55 callgsubr
          76 836 rmoveto
          -8 314 callsubr
          endchar
        </CharString>
        <CharString name="Ydieresis">
          55 callgsubr
          71 173 callsubr
        </CharString>
        <CharString name="Z">
          2 callsubr
          endchar
        </CharString>
        <CharString name="Zacute">
          2 callsubr
          276 799 478 callsubr
          20 hlineto
          6 6 3 6 5 412 callgsubr
        </CharString>
        <CharString name="Zcaron">
          2 callsubr
          204 670 414 callsubr
          -7 -3 547 callsubr
          -54 -97 -53 309 callsubr
          -24 298 callsubr
        </CharString>
        <CharString name="Zdotaccent">
          2 callsubr
          194 686 rmoveto
          -8 23 callsubr
          3 3 8 hvcurveto
          99 vlineto
          8 -3 3 -7 536 callsubr
          endchar
        </CharString>
        <CharString name="a">
          5 -66 callsubr
          endchar
        </CharString>
        <CharString name="aacute">
          5 -66 callsubr
          117 703 324 callgsubr
          -3 5 -7 hhcurveto
          endchar
        </CharString>
        <CharString name="abreve">
          5 170 681 rmoveto
          -74 31 -33 63 vhcurveto
          10 490 callgsubr
          -3 2 -6 vhcurveto
          -17 hlineto
          -6 -3 566 callgsubr
          -17 -21 -45 vhcurveto
          -5 hlineto
          -44 -16 20 57 hvcurveto
          11 vlineto
          8 -4 2 -6 vhcurveto
          -18 564 callsubr
          99 -693 122 callsubr
        </CharString>
        <CharString name="acircumflex">
          5 -66 callsubr
          88 191 callgsubr
        </CharString>
        <CharString name="acute">
          -228 150 703 209 callsubr
          5 3 6 5 412 callgsubr
        </CharString>
        <CharString name="adieresis">
          5 -66 callsubr
          119 586 rmoveto
          33 callsubr
        </CharString>
        <CharString name="ae">
          298 375 142 rmoveto
          -66 -41 -32 -62 vhcurveto
          -63 hlineto
          -64 -32 36 63 hvcurveto
          22 vlineto
          63 32 36 64 vhcurveto
          156 -92 callgsubr
          310 hmoveto
          -5 194 callgsubr
          -241 hlineto
          -7 -2 3 5 hvcurveto
          115 vlineto
          64 40 31 61 vhcurveto
          64 hlineto
          62 316 callsubr
          -260 -168 rmoveto
          5 2 4 7 vhcurveto
          286 560 callsubr
          149 vlineto
          88 370 callgsubr
          -68 hlineto
          -52 -47 -18 -48 -24 hvcurveto
          48 -22 -46 18 -53 hhcurveto
          -153 201 callsubr
          154 hlineto
          61 33 -36 -62 hvcurveto
          -54 vlineto
          -5 -2 -3 -6 vhcurveto
          -162 hlineto
          -86 -54 -53 -87 hvcurveto
          -25 vlineto
          -87 55 -53 85 vhcurveto
          62 hlineto
          56 48 17 49 24 hvcurveto
          -47 22 42 -19 57 hhcurveto
          205 hlineto
          117 callsubr
          -201 563 callsubr
          endchar
        </CharString>
        <CharString name="agrave">
          5 -66 callsubr
          29 692 rmoveto
          8 -3 -6 3 -9 226 callgsubr
          -3 hvcurveto
          endchar
        </CharString>
        <CharString name="amacron">
          5 -66 callsubr
          172 620 57 callgsubr
        </CharString>
        <CharString name="ampersand">
          100 475 8 rmoveto
          -6 5 6 -2 6 hhcurveto
          38 hlineto
          5 1 5 4 -3 hvcurveto
          -207 239 rlineto
          201 95 callsubr
          24 -56 callsubr
          -239 hlineto
          -63 72 rlineto
          -31 35 -12 25 42 vvcurveto
          35 vlineto
          62 33 34 61 vhcurveto
          19 hlineto
          60 32 -34 -62 hvcurveto
          -45 121 callgsubr
          46 506 callgsubr
          -24 hlineto
          -86 -56 -51 -88 hvcurveto
          -36 vlineto
          -48 15 -32 31 -38 vhcurveto
          -77 -3 -29 -64 -59 vvcurveto
          -85 vlineto
          -88 55 -51 86 vhcurveto
          80 hlineto
          63 43 26 49 18 hvcurveto
          -200 -30 rmoveto
          -62 -33 34 62 hvcurveto
          80 vlineto
          61 28 34 55 3 vhcurveto
          178 -204 rlineto
          -45 -8 -31 -25 -51 hhcurveto
          endchar
        </CharString>
        <CharString name="aogonek">
          5 209 45 rmoveto
          14 callsubr
          158 5 callsubr
          -313 vlineto
          229 callsubr
          -69 465 rmoveto
          240 callgsubr
          -226 165 callsubr
          86 vhcurveto
          64 607 callsubr
          -60 -80 rlineto
          -19 -14 4 -30 32 hhcurveto
          38 34 16 14 1 hvcurveto
          8 -5 4 -22 -1 vhcurveto
          -10 -17 -1 -12 hhcurveto
          -1 34 46 26 19 455 callsubr
        </CharString>
        <CharString name="apostrophemod">
          -318 116 632 83 callgsubr
        </CharString>
        <CharString name="approxequal">
          26 167 398 rmoveto
          225 callsubr
          -7 4 -4 584 callsubr
          -167 vmoveto
          225 callsubr
          -6 4 -5 584 callsubr
          endchar
        </CharString>
        <CharString name="aring">
          5 174 179 callgsubr
          67 -623 122 callsubr
        </CharString>
        <CharString name="asciicircum">
          -32 357 376 rmoveto
          -8 4 4 -4 9 hhcurveto
          24 hlineto
          9 4 6 8 -5 hvcurveto
          -131 250 rlineto
          10 -5 -6 5 -13 hhcurveto
          -37 hlineto
          -13 -6 -5 -10 -5 hvcurveto
          -131 -250 rlineto
          -8 -5 4 -6 9 hhcurveto
          24 hlineto
          9 3 4 8 5 hvcurveto
          124 236 rlineto
          endchar
        </CharString>
        <CharString name="asciitilde">
          26 167 317 rmoveto
          53 77 -29 58 hhcurveto
          28 29 5 10 23 hvcurveto
          13 6 5 4 9 vvcurveto
          -75 callsubr
          -3 4 -6 vhcurveto
          -11 -34 -22 -43 -57 -71 30 -60 hhcurveto
          -28 -29 -6 -9 -22 hvcurveto
          -14 -6 -5 -4 -10 vvcurveto
          -19 vlineto
          -6 4 -5 584 callsubr
          endchar
        </CharString>
        <CharString name="asterisk">
          -91 225 632 363 callsubr
          -22 197 callgsubr
          -15 vlineto
          -53 18 -47 4 -12 vhcurveto
          6 12 16 47 53 vvcurveto
          -114 -201 rmoveto
          -5 -8 2 -5 5 -3 18 -13 rcurveline
          6 -4 5 0 4 6 9 14 rcurveline
          31 42 13 49 4 11 -12 -6 -40 -28 -31 -43 rrcurveto
          -31 136 rmoveto
          -8 3 -4 -3 -1 -6 -8 -21 rcurveline
          -2 -7 2 -4 7 -2 16 -6 rcurveline
          -15 49 51 2 12 hhcurveto
          -9 9 -40 30 -50 16 rrcurveto
          226 -37 rmoveto
          9 3 1 6 -2 5 -7 21 rcurveline
          -2 8 -3 2 -8 -3 -16 -4 rcurveline
          -50 -17 -39 -31 -10 -8 13 -2 50 0 49 16 rrcurveto
          -55 -129 rmoveto
          5 -7 5 1 5 4 18 12 rcurveline
          6 5 1 4 -4 6 -10 13 rcurveline
          -31 43 -42 27 -10 7 2 -12 15 -48 31 -42 rrcurveto
          endchar
        </CharString>
        <CharString name="at">
          256 472 225 rmoveto
          -64 -40 -35 -63 vhcurveto
          -1 563 callsubr
          94 vlineto
          63 381 callsubr
          94 -92 callgsubr
          43 -467 rmoveto
          369 callsubr
          16 vlineto
          6 -2 4 -9 vhcurveto
          -183 hlineto
          -111 -99 83 133 hvcurveto
          155 vlineto
          133 97 83 111 vhcurveto
          193 hlineto
          68 42 -41 -70 hvcurveto
          -234 vlineto
          -64 -34 -36 -62 vhcurveto
          -9 hlineto
          -7 -4 3 6 hvcurveto
          318 vlineto
          473 callsubr
          -142 hlineto
          -83 374 callsubr
          -93 vlineto
          -88 54 -52 80 39 46 10 42 22 vhcurveto
          4 -20 hlineto
          -21 17 -13 19 vhcurveto
          30 hlineto
          80 54 53 82 hvcurveto
          239 vlineto
          88 -59 58 -89 vhcurveto
          -194 hlineto
          -125 -122 -92 -160 hvcurveto
          -158 vlineto
          -163 124 -88 126 vhcurveto
          endchar
        </CharString>
        <CharString name="atilde">
          7 -66 callsubr
          -40 654 rmoveto
          602 callsubr
          32 13 2 10 19 hhcurveto
          23 6 440 callsubr
          52 -12 26 -47 -30 -12 -10 -40 -15 vhcurveto
          -40 -15 -5 -9 -17 435 callgsubr
          endchar
        </CharString>
        <CharString name="b">
          7 75 12 rmoveto
          -9 4 -3 6 vhcurveto
          214 253 callsubr
          235 vlineto
          87 370 callgsubr
          -66 hlineto
          -57 -32 -24 -28 -15 hvcurveto
          -4 225 hlineto
          -74 callsubr
          60 -646 rmoveto
          -7 230 callsubr
          321 vlineto
          64 40 34 63 vhcurveto
          66 hlineto
          62 33 -36 -62 hvcurveto
          -231 vlineto
          -63 -33 -36 -62 vhcurveto
          endchar
        </CharString>
        <CharString name="backslash">
          -101 282 13 rmoveto
          -10 4 4 -3 8 hhcurveto
          26 hlineto
          8 6 4 10 -4 hvcurveto
          -13 35 -194 546 -13 35 rrcurveto
          9 -4 -6 callsubr
          hhcurveto
          -28 hlineto
          -8 -3 -6 -9 4 hvcurveto
          endchar
        </CharString>
        <CharString name="bar">
          -290 124 631 rmoveto
          550 callgsubr
          -619 vlineto
          -9 4 -3 7 vhcurveto
          20 -19 callsubr
          endchar
        </CharString>
        <CharString name="braceleft">
          -199 223 643 rmoveto
          -77 -36 -54 -88 hvcurveto
          -132 vlineto
          -57 -22 -19 -40 -9 -3 -4 -7 vhcurveto
          -24 vlineto
          -7 3 -4 9 40 22 -19 -57 vhcurveto
          -131 vlineto
          -88 36 -54 77 vhcurveto
          5 399 callgsubr
          -4 hlineto
          -54 -16 36 62 hvcurveto
          137 vlineto
          50 -18 35 -36 11 vhcurveto
          36 12 18 33 51 vvcurveto
          138 vlineto
          62 16 36 54 vhcurveto
          4 399 callgsubr
          endchar
        </CharString>
        <CharString name="braceright">
          -199 166 501 rmoveto
          88 -36 54 -77 vhcurveto
          -5 hlineto
          -89 callsubr
          -7 3 -4 9 vhcurveto
          4 hlineto
          53 16 -36 -62 hvcurveto
          -138 vlineto
          -51 19 -33 35 -12 vhcurveto
          -35 -11 -19 -35 -50 vvcurveto
          -137 vlineto
          -62 -16 -36 -53 vhcurveto
          -4 hlineto
          -89 callsubr
          -7 3 -4 9 vhcurveto
          5 hlineto
          77 36 54 88 hvcurveto
          131 vlineto
          57 22 19 40 452 callgsubr
          vhcurveto
          24 218 callsubr
          -40 -22 19 57 vhcurveto
          endchar
        </CharString>
        <CharString name="bracketleft">
          -210 207 -101 rmoveto
          369 callsubr
          18 162 callsubr
          -89 312 callsubr
          646 -19 callgsubr
          89 460 callsubr
          18 162 callsubr
          -133 219 callgsubr
          hvcurveto
          -720 561 callgsubr
          endchar
        </CharString>
        <CharString name="bracketright">
          -210 60 -90 rmoveto
          -67 callsubr
          132 -19 callsubr
          720 vlineto
          473 callsubr
          -132 hlineto
          -9 158 callgsubr
          -18 -78 callgsubr
          88 -92 callgsubr
          -646 100 callgsubr
          -88 hlineto
          -9 158 callgsubr
          endchar
        </CharString>
        <CharString name="breve">
          -165 66 681 rmoveto
          320 callgsubr
          -5 274 callsubr
        </CharString>
        <CharString name="brokenbar">
          -296 122 257 rmoveto
          8 413 callgsubr
          -23 197 callgsubr
          -245 vlineto
          -9 4 -3 7 vhcurveto
          23 288 callgsubr
          619 vmoveto
          323 callgsubr
          -23 hlineto
          32 callsubr
          -245 556 callgsubr
          23 461 callgsubr
          endchar
        </CharString>
        <CharString name="bullet">
          -224 181 380 rmoveto
          15 -8 7 -13 vhcurveto
          -47 hlineto
          -14 -8 -7 -15 hvcurveto
          -122 vlineto
          -15 8 -7 14 vhcurveto
          47 hlineto
          13 8 7 15 hvcurveto
          endchar
        </CharString>
        <CharString name="c">
          61 callsubr
          endchar
        </CharString>
        <CharString name="cacute">
          61 callsubr
          -73 692 90 callgsubr
        </CharString>
        <CharString name="caron">
          -171 152 574 189 callsubr
          endchar
        </CharString>
        <CharString name="ccaron">
          61 callsubr
          -135 563 33 callgsubr
        </CharString>
        <CharString name="ccedilla">
          -103 349 465 rmoveto
          9 2 3 7 hvcurveto
          212 callsubr
          -144 -46 callgsubr
          32 hlineto
          -39 -44 rlineto
          -16 -15 8 -23 24 hhcurveto
          12 hlineto
          40 13 -8 -25 hvcurveto
          -2 vlineto
          -22 -14 -10 -39 vhcurveto
          -19 hlineto
          -9 -3 -3 -7 hvcurveto
          -13 vlineto
          -6 -57 callgsubr
          24 hlineto
          53 29 17 43 hvcurveto
          12 vlineto
          45 -27 16 -51 vhcurveto
          4 vlineto
          44 46 rlineto
          69 hlineto
          9 2 3 8 hvcurveto
          23 vlineto
          184 callsubr
          endchar
        </CharString>
        <CharString name="cedilla">
          -240 74 -44 rmoveto
          325 callgsubr
          3 -4 8 vhcurveto
          25 hlineto
          52 399 callsubr
          62 66 rlineto
          -44 hlineto
          endchar
        </CharString>
        <CharString name="cent">
          -83 271 -90 rmoveto
          7 4 3 8 hvcurveto
          79 85 vlineto
          539 callsubr
          24 vlineto
          6 259 callgsubr
          -158 149 callgsubr
          158 hlineto
          8 3 4 6 hvcurveto
          24 vlineto
          7 -6 4 -9 vhcurveto
          -81 91 hlineto
          9 -4 3 -7 214 callgsubr
          -8 hvcurveto
          -91 -33 vlineto
          -85 -53 -55 -87 hvcurveto
          -226 vlineto
          -87 53 -55 85 vhcurveto
          33 -79 hlineto
          -8 4 -3 7 vhcurveto
          endchar
        </CharString>
        <CharString name="circumflex">
          -171 193 694 102 callsubr
          54 97 53 207 callgsubr
          7 2 5 6 -4 hvcurveto
          endchar
        </CharString>
        <CharString name="colon">
          -306 123 131 127 callgsubr
          487 vmoveto
          350 callsubr
          endchar
        </CharString>
        <CharString name="comma">
          -306 123 131 rmoveto
          286 callgsubr
        </CharString>
        <CharString name="copyright">
          226 205 643 rmoveto
          -81 -52 -52 -81 hvcurveto
          -377 vlineto
          -81 52 -52 81 vhcurveto
          313 hlineto
          81 51 52 81 hvcurveto
          377 vlineto
          81 -51 52 -81 vhcurveto
          -308 -605 rmoveto
          -63 -34 36 64 hvcurveto
          367 142 callgsubr
          303 hlineto
          63 34 -36 -64 hvcurveto
          -367 vlineto
          -64 -34 -36 -63 vhcurveto
          -19 364 rmoveto
          80 -42 34 -79 vhcurveto
          -27 hlineto
          -79 -42 -34 -80 hvcurveto
          -167 vlineto
          -80 42 -33 79 vhcurveto
          27 hlineto
          79 42 33 80 hvcurveto
          26 vlineto
          7 -3 3 -6 vhcurveto
          -22 hlineto
          -6 -4 -3 -7 hvcurveto
          -22 vlineto
          -63 -22 -18 -63 vhcurveto
          -18 hlineto
          -62 -23 18 63 hvcurveto
          159 vlineto
          64 23 17 62 vhcurveto
          18 hlineto
          63 22 -17 -64 hvcurveto
          -16 vlineto
          -8 4 -2 6 vhcurveto
          22 hlineto
          6 3 2 8 hvcurveto
          endchar
        </CharString>
        <CharString name="currency">
          -18 143 230 rmoveto
          -1 -1 -1 0 1 1 -1 1 1 vhcurveto
          23 25 -5 -1 rlineto
          152 145 rmoveto
          -3 -5 24 24 rlineto
          1 1 -1 1 1 vvcurveto
          0 -1 0 -1 -1 vhcurveto
          -119 -226 rmoveto
          -62 37 callsubr
          64 vlineto
          62 33 36 62 vhcurveto
          49 hlineto
          62 33 -36 -62 hvcurveto
          -64 vlineto
          -63 -33 -36 -62 vhcurveto
          123 14 rmoveto
          14 22 8 28 33 vvcurveto
          69 vlineto
          88 -55 52 -86 vhcurveto
          -57 hlineto
          -35 -30 -8 -16 -23 hvcurveto
          -50 49 -6 7 -5 -1 -5 -6 rlinecurve
          -17 -17 -5 -5 -1 -5 6 -6 rlinecurve
          51 -50 rlineto
          -14 -22 -7 -27 -33 vvcurveto
          -69 165 callsubr
          87 vhcurveto
          57 hlineto
          35 29 9 16 23 hvcurveto
          50 -49 7 -6 5 1 5 5 rlinecurve
          16 17 6 5 1 5 -7 6 rlinecurve
          endchar
        </CharString>
        <CharString name="d">
          7 96 callsubr
          endchar
        </CharString>
        <CharString name="dagger">
          -70 217 hmoveto
          6 5 -86 callsubr
          2 12 8 250 52 vvcurveto
          34 -3 50 -4 21 179 callsubr
          138 6 rlineto
          -4 -23 -2 -52 -29 vvcurveto
          -53 8 -250 2 -12 vhcurveto
          -9 4 -3 7 vhcurveto
          endchar
        </CharString>
        <CharString name="daggerdbl">
          -70 194 431 rmoveto
          -3 -24 -3 -56 -31 vvcurveto
          -32 3 -54 3 -23 vhcurveto
          -138 6 rlineto
          -9 1 -2 -5 -7 vvcurveto
          -26 vlineto
          -7 2 -3 9 vhcurveto
          139 7 -7 -165 rlineto
          -9 -1 5 -3 7 hhcurveto
          296 callsubr
          -7 165 140 -7 rlineto
          8 3 3 7 hvcurveto
          26 vlineto
          7 -3 5 -8 -1 vhcurveto
          -140 -7 rlineto
          4 23 3 52 34 vvcurveto
          34 -3 56 -4 22 179 callsubr
          endchar
        </CharString>
        <CharString name="danda">
          -211 317 callsubr
          endchar
        </CharString>
        <CharString name="dcaron">
          37 96 callsubr
          337 692 rmoveto
          471 callgsubr
          -32 413 callsubr
          -8 hvcurveto
          -218 vlineto
          -7 4 -2 3 4 3 2 5 2 vhcurveto
          25 91 484 callgsubr
          16 20 vvcurveto
          endchar
        </CharString>
        <CharString name="dcroat">
          42 379 535 callsubr
          -67 hlineto
          107 callgsubr
          156 vlineto
          62 33 36 61 vhcurveto
          67 hlineto
          63 40 -34 -64 hvcurveto
          -109 -300 rmoveto
          330 callgsubr
          6 vhcurveto
          29 -19 callsubr
          535 vlineto
          6 230 callgsubr
          63 hlineto
          9 3 4 7 170 callsubr
          -63 hlineto
          -7 230 callsubr
          84 vlineto
          -74 callsubr
          -84 100 callgsubr
          -161 461 callsubr
          -20 187 callsubr
          161 -92 callgsubr
          -156 -4 vlineto
          29 -15 -32 24 -58 hhcurveto
          -65 172 callsubr
          -160 165 callsubr
          86 vhcurveto
          endchar
        </CharString>
        <CharString name="degree">
          -199 155 540 rmoveto
          -12 hlineto
          -26 -6 8 24 hvcurveto
          69 vlineto
          25 6 7 26 vhcurveto
          12 hlineto
          26 5 -7 -25 hvcurveto
          -69 vlineto
          -24 -5 -8 -26 vhcurveto
          14 -29 rmoveto
          30 20 18 31 hvcurveto
          97 vlineto
          30 -20 17 -30 vhcurveto
          -42 hlineto
          -31 -18 -17 -30 hvcurveto
          -97 vlineto
          -31 18 -18 31 vhcurveto
          endchar
        </CharString>
        <CharString name="dieresis">
          -152 230 586 rmoveto
          -9 3 -3 7 vhcurveto
          28 hlineto
          6 4 85 callsubr
          -3 -3 -8 hvcurveto
          -164 -106 94 callgsubr
          endchar
        </CharString>
        <CharString name="divide">
          13 234 434 rmoveto
          -9 4 -3 7 vhcurveto
          20 -19 callsubr
          60 vlineto
          550 callgsubr
          190 -193 363 callgsubr
          18 -56 callsubr
          -338 hlineto
          -9 158 callgsubr
          -18 -78 callgsubr
          148 -154 565 callgsubr
          20 557 callgsubr
          61 vlineto
          550 callgsubr
          endchar
        </CharString>
        <CharString name="dollar">
          7 275 -98 332 callgsubr
          86 9 vlineto
          85 55 54 88 hvcurveto
          66 vlineto
          107 -62 30 -78 2 vhcurveto
          -72 hlineto
          -67 1 -37 21 70 vvcurveto
          58 vlineto
          67 33 35 64 vhcurveto
          70 hlineto
          64 33 -35 -65 hvcurveto
          -24 305 callsubr
          4 3 9 hvcurveto
          28 vlineto
          86 -54 56 -84 vhcurveto
          -9 86 hlineto
          473 callsubr
          -23 hlineto
          32 callsubr
          -86 -32 vlineto
          -86 -54 -55 -87 hvcurveto
          -63 vlineto
          -109 64 -27 83 -2 vhcurveto
          63 -1 rlineto
          66 -1 40 -21 -74 vvcurveto
          -59 vlineto
          -65 -33 -36 -64 vhcurveto
          -72 hlineto
          -64 -33 36 64 hvcurveto
          28 vlineto
          9 -3 361 callsubr
          -2 -9 hvcurveto
          -31 vlineto
          -87 55 -55 85 vhcurveto
          32 -86 hlineto
          -9 4 -3 7 vhcurveto
          endchar
        </CharString>
        <CharString name="dotaccent">
          -314 66 589 194 callsubr
        </CharString>
        <CharString name="dotlessi">
          -285 81 12 rmoveto
          -9 3 -3 7 vhcurveto
          29 hlineto
          8 3 2 10 hvcurveto
          486 vlineto
          -21 callgsubr
          -7 -3 25 callgsubr
          endchar
        </CharString>
        <CharString name="dottedcircle">
          163 139 517 rmoveto
          -26 18 -19 26 26 18 19 26 25 -18 19 -26 -26 -18 -19 -25 vhcurveto
          -82 -110 rmoveto
          -25 20 -19 26 24 20 19 25 25 -20 19 -24 -26 -20 -19 -25 vhcurveto
          -13 -126 rmoveto
          -25 19 -18 25 26 18 18 601 callgsubr
          52 -116 rmoveto
          -26 18 -18 26 25 19 18 26 25 -19 19 -25 -26 -18 -19 -25 vhcurveto
          101 -75 rmoveto
          -26 19 -20 26 25 19 20 26 24 -19 20 -25 -26 -19 -20 -24 vhcurveto
          127 -16 rmoveto
          -26 18 -18 26 26 19 18 26 26 -19 18 -26 -26 -18 -18 -26 vhcurveto
          121 53 rmoveto
          -26 19 -18 25 25 20 18 26 25 -20 19 -25 -25 -19 -19 -25 vhcurveto
          73 98 rmoveto
          -25 19 -19 26 24 19 19 25 26 -19 19 -24 -26 -19 -19 -26 vhcurveto
          10 134 rmoveto
          -26 18 -18 26 25 19 18 26 26 -19 18 -25 -26 -18 -18 -26 vhcurveto
          -50 118 rmoveto
          -25 19 -19 25 26 18 19 601 callgsubr
          -95 68 rmoveto
          -24 19 -20 26 25 18 20 24 26 -18 19 -25 -26 -19 -19 -26 vhcurveto
          -126 15 rmoveto
          -26 18 -18 26 26 18 18 26 26 -18 18 -26 -26 -18 -18 -26 vhcurveto
          endchar
        </CharString>
        <CharString name="doubledanda">
          21 317 callsubr
          231 -599 rmoveto
          11 callsubr
          599 81 callgsubr
          -25 hlineto
          -8 -21 callsubr
          endchar
        </CharString>
        <CharString name="dvA">
          101 480 623 rmoveto
          -85 callgsubr
          84 hlineto
          9 -106 callgsubr
          -9 vhcurveto
          endchar
        </CharString>
        <CharString name="dvAA">
          331 478 623 rmoveto
          -85 callgsubr
          164 5 callsubr
          -560 vlineto
          -9 4 -3 7 vhcurveto
          26 -19 callsubr
          560 vlineto
          6 3 3 7 -103 callgsubr
          endchar
        </CharString>
        <CharString name="dvAI">
          29 468 623 rmoveto
          -13 -4 246 callsubr
          -4 3 -9 hhcurveto
          -27 hlineto
          -6 115 callsubr
          61 -90 41 -59 41 -52 25 -30 rlinecurve
          -414 -88 callsubr
          84 -92 callgsubr
          -392 vlineto
          -89 56 -60 91 vhcurveto
          178 389 callsubr
          5 -9 vhcurveto
          -172 hlineto
          -69 -37 39 66 hvcurveto
          391 vlineto
          6 3 441 callsubr
          -149 vlineto
          -74 -39 -20 -50 vhcurveto
          -40 hlineto
          -9 158 callgsubr
          -21 19 callsubr
          43 hlineto
          79 55 41 97 hvcurveto
          149 vlineto
          6 230 callgsubr
          62 -48 callsubr
          endchar
        </CharString>
        <CharString name="dvAU">
          332 745 623 rmoveto
          -6 -1 3 6 hvcurveto
          229 vlineto
          9 -4 2 -8 vhcurveto
          -24 197 callgsubr
          -53 vlineto
          -79 11 -65 7 -16 vhcurveto
          -3 -1 -138 214 501 callgsubr
          -24 hlineto
          -7 115 callsubr
          61 -90 54 -78 46 -50 11 -9 rlinecurve
          -4 -208 vlineto
          -85 callgsubr
          164 -92 callgsubr
          -560 vlineto
          -9 4 -3 7 -6 callgsubr
        </CharString>
        <CharString name="dvAbbreviationsign">
          -106 350 285 rmoveto
          46 vlineto
          86 -54 53 -85 vhcurveto
          -33 hlineto
          -85 -53 -53 -86 hvcurveto
          -46 vlineto
          -86 53 -53 85 vhcurveto
          33 hlineto
          85 54 53 86 hvcurveto
          -262 2 rmoveto
          42 vlineto
          63 31 36 64 vhcurveto
          24 hlineto
          63 32 -36 -63 hvcurveto
          -42 vlineto
          -63 -32 -36 -63 vhcurveto
          -24 hlineto
          -64 -31 36 63 hvcurveto
          endchar
        </CharString>
        <CharString name="dvAcandra">
          101 480 623 rmoveto
          -85 callgsubr
          84 hlineto
          9 -106 callgsubr
          -9 vhcurveto
          4 207 rmoveto
          -8 264 callgsubr
          70 hlineto
          81 39 40 83 hvcurveto
          6 vlineto
          10 -5 4 -8 vhcurveto
          endchar
        </CharString>
        <CharString name="dvAnusvara">
          -497 -92 779 rmoveto
          473 callsubr
          -32 300 callsubr
          32 560 callsubr
          endchar
        </CharString>
        <CharString name="dvAnusvara.amI">
          -497 96 779 rmoveto
          473 callsubr
          -33 300 callsubr
          33 -19 callsubr
          endchar
        </CharString>
        <CharString name="dvAvagraha">
          32 442 202 rmoveto
          69 -27 27 -119 62 vhcurveto
          -106 55 -18 38 43 vvcurveto
          60 11 25 73 vhcurveto
          132 -106 callsubr
          -137 hlineto
          -106 -21 -40 -88 -68 20 -46 112 -58 hvcurveto
          93 -48 44 -21 -54 vvcurveto
          -61 vlineto
          -55 -15 -40 -75 vhcurveto
          -43 hlineto
          -58 -31 35 47 -44 hvcurveto
          5 -5 -4 4 -5 hhcurveto
          -3 -3 -1 -4 -4 hvcurveto
          -9 -8 rlineto
          -4 -3 -2 -3 -5 vvcurveto
          -4 3 -6 4 -3 vhcurveto
          -38 32 52 -60 79 hhcurveto
          51 hlineto
          94 39 51 85 hvcurveto
          endchar
        </CharString>
        <CharString name="dvB">
          -232 391 612 rmoveto
          -58 callgsubr
          -381 -88 callsubr
          381 hlineto
          9 3 12 callsubr
          -183 -463 218 callgsubr
          108 136 270 callsubr
          -25 -38 callsubr
          84 54 52 91 hvcurveto
          24 391 callgsubr
        </CharString>
        <CharString name="dvBA">
          -6 208 130 31 callsubr
          -254 31 callgsubr
          343 -23 callgsubr
          -87 -54 -53 -88 -1 hvcurveto
          452 callsubr
          56 -52 86 vhcurveto
          43 182 callgsubr
          -122 hlineto
          -99 callsubr
          9 -106 callgsubr
          -9 vhcurveto
          endchar
        </CharString>
        <CharString name="dvBH">
          441 callgsubr
          -219 hlineto
          -6 -3 3 7 hvcurveto
          158 98 callgsubr
          45 29 -23 -54 243 callsubr
          218 287 rmoveto
          -107 callsubr
          -94 hlineto
          -9 360 callsubr
          9 vhcurveto
          endchar
        </CharString>
        <CharString name="dvBHA">
          -6 342 453 callgsubr
          7 4 3 9 hvcurveto
          560 vlineto
          6 3 3 7 -103 callgsubr
          -230 hlineto
          34 callgsubr
          -8 -88 callsubr
          8 hlineto
          43 31 -21 -56 243 callsubr
          endchar
        </CharString>
        <CharString name="dvBH_LA">
          444 262 623 rmoveto
          0 -1 580 callsubr
          vlineto
          268 callgsubr
          580 callsubr
          1 0 529 vlineto
          334 callsubr
          -73 -51 -33 -73 -12 hvcurveto
          -201 hlineto
          -6 -3 3 7 hvcurveto
          158 98 callgsubr
          45 29 -23 -54 243 callsubr
          197 -116 hlineto
          -1 callgsubr
          314 callgsubr
          -289 vlineto
          -9 4 -3 8 vhcurveto
          25 hlineto
          7 5 -86 callsubr
          560 vlineto
          6 2 3 7 -103 callgsubr
          endchar
        </CharString>
        <CharString name="dvBH_NA">
          260 260 -91 callgsubr
          348 287 callgsubr
          -182 hlineto
          -39 -27 -14 -24 -15 hvcurveto
          -208 hlineto
          -6 -3 3 7 hvcurveto
          158 98 callgsubr
          45 29 -23 -54 243 callsubr
          192 hlineto
          -1 -5 0 -4 -5 336 callgsubr
          4 4 6 5 -2 3 -2 9 hvcurveto
          -6 17 -4 17 249 callgsubr
          172 hlineto
          7 482 callgsubr
          -310 202 callsubr
          560 vlineto
          6 3 3 7 -103 callgsubr
          endchar
        </CharString>
        <CharString name="dvBH_R">
          -240 137 341 rmoveto
          145 callsubr
          154 98 callgsubr
          43 31 -21 -56 hvcurveto
          -314 vlineto
          -73 callsubr
          4 8 vhcurveto
          206 -5 hlineto
          -242 -281 144 callgsubr
          208 247 rlineto
          14 16 4 13 27 vvcurveto
          1 vlineto
          20 96 callgsubr
          -107 282 300 callgsubr
          107 -70 callsubr
          endchar
        </CharString>
        <CharString name="dvBH_RA">
          -6 263 623 rmoveto
          294 callsubr
          -221 vlineto
          -6 185 callgsubr
          154 98 callgsubr
          43 31 -21 -56 hvcurveto
          -314 vlineto
          -73 callsubr
          4 8 vhcurveto
          204 hlineto
          5 2 -2 -3 1 hvcurveto
          -248 -281 144 callgsubr
          196 226 rlineto
          -220 202 callsubr
          560 vlineto
          6 3 3 7 -103 callgsubr
          endchar
        </CharString>
        <CharString name="dvBH_R_YA">
          333 690 -91 callsubr
          -426 51 rmoveto
          62 callgsubr
          -42 -197 vlineto
          145 callsubr
          154 98 callgsubr
          43 31 -21 -56 hvcurveto
          -314 vlineto
          -73 callsubr
          4 8 vhcurveto
          196 -23 hlineto
          -232 -263 144 callgsubr
          184 211 rlineto
          -68 16 54 -45 83 hhcurveto
          -43 callgsubr
          7 vhcurveto
          26 -19 callsubr
          560 vlineto
          6 3 3 7 -103 callgsubr
          endchar
        </CharString>
        <CharString name="dvBH_VA">
          258 262 623 300 callgsubr
          344 hlineto
          7 3 -3 -6 hvcurveto
          -340 vlineto
          -83 callgsubr
          -87 -54 -53 -88 -1 hvcurveto
          -2 -197 vlineto
          -6 -3 3 7 hvcurveto
          158 98 callgsubr
          45 29 -23 -54 243 callsubr
          196 -62 hlineto
          -88 56 -52 86 vhcurveto
          200 callgsubr
          3 3 7 -103 callgsubr
          endchar
        </CharString>
        <CharString name="dvBH_YA">
          330 688 -91 callsubr
          -426 51 rmoveto
          0 -1 580 callsubr
          vlineto
          268 callgsubr
          580 callsubr
          1 0 133 279 callgsubr
          -46 -195 vlineto
          -6 -3 3 7 hvcurveto
          158 98 callgsubr
          45 29 -23 -54 243 callsubr
          194 -34 hlineto
          -91 59 -65 99 vhcurveto
          -43 callgsubr
          7 vhcurveto
          26 -19 callsubr
          560 vlineto
          6 3 3 7 -103 callgsubr
          endchar
        </CharString>
        <CharString name="dvB_BA">
          286 501 130 31 callsubr
          -337 hmoveto
          348 callgsubr
          18 3 15 5 13 vhcurveto
          220 -225 rlineto
          -23 -16 -27 -12 -37 hhcurveto
          -261 31 callgsubr
          636 -23 callgsubr
          -87 -54 -53 -88 -1 hvcurveto
          -116 -38 callsubr
          54 42 22 40 23 hvcurveto
          -39 23 43 -22 56 hhcurveto
          43 182 callgsubr
          -122 hlineto
          -99 callsubr
          9 -106 callgsubr
          -9 vhcurveto
          endchar
        </CharString>
        <CharString name="dvB_BHA">
          267 398 callgsubr
          17 3 16 5 13 vhcurveto
          217 -224 rlineto
          -23 -16 -28 -13 -37 hhcurveto
          281 493 rmoveto
          -9 -5 238 callsubr
          5 -87 callgsubr
          78 5 callsubr
          -217 vlineto
          -6 -2 -3 178 callsubr
          2 8 hvcurveto
          149 197 callsubr
          -281 -88 callsubr
          281 564 callgsubr
          -277 vlineto
          -9 -1 -9 -1 -8 vhcurveto
          -212 219 374 callgsubr
          8 30 hhcurveto
          217 callgsubr
          -52 86 vhcurveto
          54 hlineto
          88 53 54 82 525 callsubr
          -291 hlineto
          -9 4 -3 7 vhcurveto
          26 -19 callsubr
          560 vlineto
          6 3 3 7 -103 callgsubr
          endchar
        </CharString>
        <CharString name="dvB_BH_RA">
          267 383 callgsubr
          -25 -16 -27 -14 -39 hhcurveto
          281 493 rmoveto
          -9 -5 238 callsubr
          5 -87 callgsubr
          78 -92 callgsubr
          -217 100 callgsubr
          -205 hlineto
          -5 -3 2 8 hvcurveto
          149 vlineto
          77 -46 41 -76 vhcurveto
          -281 -88 callsubr
          281 hlineto
          43 30 -21 -56 hvcurveto
          -279 vlineto
          -1 vlineto
          0 vlineto
          -6 -1 -7 -1 -5 vhcurveto
          -210 215 277 callgsubr
          56 hlineto
          89 50 55 81 525 callsubr
          -11 hlineto
          -247 -280 515 callgsubr
          8 5 3 7 6 hvcurveto
          194 224 rlineto
          -216 vlineto
          -99 callsubr
          9 -106 callgsubr
          -9 vhcurveto
          endchar
        </CharString>
        <CharString name="dvB_DA">
          278 208 130 218 callgsubr
          -261 31 callgsubr
          632 102 callgsubr
          249 callsubr
          -91 -38 callsubr
          54 42 22 39 23 hvcurveto
          -39 22 42 -23 57 hhcurveto
          70 hlineto
          481 callsubr
          17 hvcurveto
          -12 callsubr
        </CharString>
        <CharString name="dvB_DHA">
          347 208 132 rmoveto
          -64 -33 35 64 hvcurveto
          113 vlineto
          18 3 15 5 13 vhcurveto
          219 -224 rlineto
          -22 -15 -27 -12 -37 hhcurveto
          355 491 -99 callgsubr
          79 hlineto
          8 538 callsubr
          -34 -41 -69 vhcurveto
          -104 hlineto
          -62 -30 27 64 hvcurveto
          42 vlineto
          55 26 29 56 133 callsubr
          -62 224 callsubr
          35 507 callgsubr
          22 -106 callsubr
          -505 -88 callsubr
          394 221 callsubr
          -43 -14 -19 -32 -1 -52 rrcurveto
          -2 vlineto
          -23 vlineto
          -11 -1 -10 -2 -10 103 callsubr
          53 hlineto
          9 4 4 7 hvcurveto
          20 152 callsubr
          -9 vhcurveto
          -56 hlineto
          -87 -54 -53 -88 hvcurveto
          -115 vlineto
          -88 55 -53 86 vhcurveto
          51 hlineto
          50 39 17 33 24 hvcurveto
          -44 20 44 -22 59 hhcurveto
          110 hlineto
          45 37 543 callsubr
          -110 hlineto
          -9 4 -3 7 vhcurveto
          26 -19 callsubr
          560 vlineto
          6 3 3 7 -103 callgsubr
          endchar
        </CharString>
        <CharString name="dvB_DH_VA">
          600 383 callgsubr
          -26 -22 -20 -13 -43 hhcurveto
          398 31 callgsubr
          298 hlineto
          7 3 -3 -6 hvcurveto
          -340 vlineto
          -83 callgsubr
          -87 -54 -53 -88 -1 hvcurveto
          -107 vlineto
          -26 5 -23 9 -19 vhcurveto
          -23 -22 -21 -16 -43 hhcurveto
          -104 hlineto
          -62 -30 27 63 hvcurveto
          38 vlineto
          55 26 29 56 -16 callsubr
          32 507 callgsubr
          32 -106 callsubr
          -519 -88 callsubr
          398 310 callsubr
          -33 vlineto
          -52 471 callsubr
          -4 vlineto
          -44 -15 -19 -34 -55 vvcurveto
          -41 vlineto
          -5 0 -6 1 -5 vhcurveto
          -1 hlineto
          -220 225 277 callgsubr
          46 hlineto
          63 35 27 31 24 hvcurveto
          -43 21 43 -22 59 hhcurveto
          110 hlineto
          54 32 24 24 23 hvcurveto
          -24 25 35 -13 43 hhcurveto
          200 callgsubr
          2 3 8 -103 callgsubr
          endchar
        </CharString>
        <CharString name="dvB_JA">
          386 111 321 rmoveto
          20 3 17 7 14 vhcurveto
          223 -258 rlineto
          -136 hlineto
          -64 -33 35 64 hvcurveto
          -113 410 -99 callgsubr
          736 -97 callgsubr
          -143 151 callgsubr
          -314 201 callsubr
          59 245 callsubr
          -85 hlineto
          -249 288 rlineto
          12 16 21 6 27 hhcurveto
          444 callsubr
          5 -9 vhcurveto
          -59 hlineto
          -87 -54 -53 -88 -1 hvcurveto
          -114 vlineto
          -88 56 -52 86 vhcurveto
          280 hlineto
          77 52 42 94 hvcurveto
          76 vlineto
          43 -12 31 -29 15 vhcurveto
          4 160 vlineto
          -37 callgsubr
          -354 vlineto
          -9 4 -3 7 vhcurveto
          26 -19 callsubr
          560 vlineto
          6 3 3 7 -103 callgsubr
          endchar
        </CharString>
        <CharString name="dvB_JHA">
          465 822 286 rmoveto
          -4 callsubr
          -329 hlineto
          -57 -23 16 50 hvcurveto
          32 vlineto
          51 22 17 58 vhcurveto
          140 138 callsubr
          154 -97 callgsubr
          -614 -442 218 callgsubr
          -261 31 callgsubr
          594 -97 callgsubr
          -76 -17 callsubr
          -110 hlineto
          -80 395 callsubr
          -149 -40 callsubr
          -52 86 vhcurveto
          56 hlineto
          87 51 51 91 hvcurveto
          27 vlineto
          -15 22 31 -8 37 hhcurveto
          69 hlineto
          52 21 -20 -48 hvcurveto
          -70 vlineto
          -51 590 callgsubr
          -38 hlineto
          -55 -28 15 55 9 -4 3 -8 hvcurveto
          -23 hlineto
          -8 -21 callsubr
          -184 vlineto
          420 callsubr
          102 4 vlineto
          -26 16 31 -6 37 hhcurveto
          36 hlineto
          81 45 37 75 hvcurveto
          76 vlineto
          28 -8 23 -17 13 vhcurveto
          159 hlineto
          7 482 callgsubr
          -212 202 callsubr
          560 vlineto
          6 3 3 7 -103 callgsubr
          endchar
        </CharString>
        <CharString name="dvB_J_YA">
          738 1095 259 rmoveto
          77 callgsubr
          186 vlineto
          7 2 -3 -6 hvcurveto
          -984 -251 rmoveto
          20 3 17 7 14 vhcurveto
          223 -258 rlineto
          -136 hlineto
          -64 -33 35 64 hvcurveto
          -113 410 -99 callgsubr
          804 271 callsubr
          -12 394 callsubr
          -21 hlineto
          27 -9 -22 15 -39 hhcurveto
          -292 201 callsubr
          59 hlineto
          49 40 -21 -73 hvcurveto
          -88 vlineto
          -71 545 callsubr
          -85 hlineto
          -249 288 rlineto
          12 16 21 6 27 hhcurveto
          444 callsubr
          5 -9 vhcurveto
          -59 hlineto
          -87 -54 -53 -88 -1 hvcurveto
          -114 vlineto
          -88 56 -52 86 vhcurveto
          280 hlineto
          77 52 42 94 hvcurveto
          92 vlineto
          43 -12 31 -29 15 vhcurveto
          4 131 vlineto
          32 3 -12 -30 hvcurveto
          -89 vlineto
          -91 60 -65 98 vhcurveto
          -43 callgsubr
          8 vhcurveto
          25 hlineto
          7 4 3 9 hvcurveto
          560 vlineto
          6 3 3 7 -103 callgsubr
          endchar
        </CharString>
        <CharString name="dvB_JxA">
          386 425 8 rmoveto
          141 callsubr
          -345 313 rmoveto
          20 3 17 7 14 vhcurveto
          223 -258 rlineto
          -136 hlineto
          -64 -33 35 64 hvcurveto
          -113 410 -99 callgsubr
          736 -97 callgsubr
          -143 151 callgsubr
          -314 201 callsubr
          59 245 callsubr
          -85 hlineto
          -249 288 rlineto
          12 16 21 6 27 hhcurveto
          444 callsubr
          5 -9 vhcurveto
          -59 hlineto
          -87 -54 -53 -88 -1 hvcurveto
          -114 vlineto
          -88 56 -52 86 vhcurveto
          280 hlineto
          77 52 42 94 hvcurveto
          76 vlineto
          43 -12 31 -29 15 vhcurveto
          4 160 vlineto
          -37 callgsubr
          -354 vlineto
          -9 4 -3 7 vhcurveto
          26 -19 callsubr
          560 vlineto
          6 3 3 7 -103 callgsubr
          endchar
        </CharString>
        <CharString name="dvB_LA">
          464 208 130 218 callgsubr
          -261 31 callgsubr
          814 -97 callgsubr
          -171 -4 vlineto
          489 callgsubr
          -16 -44 18 -55 hhcurveto
          -84 -55 -44 -97 hvcurveto
          -73 -38 callsubr
          46 36 16 29 23 hvcurveto
          -66 17 49 -28 70 hhcurveto
          51 521 callsubr
          -48 hlineto
          -63 -85 callsubr
          7 vhcurveto
          25 hlineto
          7 491 callsubr
          60 314 callgsubr
          -289 vlineto
          -9 4 -3 7 vhcurveto
          26 -19 callsubr
          560 vlineto
          6 3 3 7 -103 callgsubr
          endchar
        </CharString>
        <CharString name="dvB_L_YA">
          -17 1178 445 callsubr
          -40 40 71 hvcurveto
          65 21 vlineto
          79 49 36 90 hvcurveto
          43 446 callgsubr
          -82 callgsubr
          -970 -442 218 callgsubr
          -261 31 callgsubr
          887 hlineto
          434 callgsubr
          -41 vlineto
          -67 258 callsubr
          -22 hlineto
          73 -8 -62 29 -64 hhcurveto
          -56 -42 -18 -48 -17 378 callgsubr
          -99 -38 callsubr
          49 38 17 33 24 hvcurveto
          -50 21 46 -24 63 hhcurveto
          51 402 callgsubr
          8 -3 3 -9 vhcurveto
          -48 hlineto
          -63 503 callgsubr
          72 32 27 61 59 33 -25 -70 vhcurveto
          -89 398 callsubr
          87 vlineto
          74 33 23 60 536 callgsubr
          59 -63 608 callsubr
          51 42 19 34 18 hvcurveto
          4 -145 hlineto
          -9 4 -3 7 vhcurveto
          26 -19 callsubr
          560 vlineto
          6 3 3 7 -103 callgsubr
          endchar
        </CharString>
        <CharString name="dvB_NA">
          313 332 171 rmoveto
          -26 -15 -26 -15 -39 hhcurveto
          -44 hlineto
          348 callgsubr
          16 2 17 6 12 vhcurveto
          146 54 rmoveto
          -18 callsubr
          -87 -54 -53 -88 hvcurveto
          313 callgsubr
          -53 86 vhcurveto
          50 hlineto
          66 40 29 53 24 hvcurveto
          -245 250 rlineto
          15 15 23 9 30 hhcurveto
          -210 180 -99 callgsubr
          663 -97 callgsubr
          -188 vlineto
          442 callsubr
          -55 367 callsubr
          hvcurveto
          26 callgsubr
          -310 vlineto
          -9 4 -3 7 vhcurveto
          26 -19 callsubr
          560 vlineto
          6 3 3 7 -103 callgsubr
          endchar
        </CharString>
        <CharString name="dvB_R">
          -230 364 225 rmoveto
          -4 -9 -4 -7 -5 -6 -209 217 rcurveline
          208 callsubr
          -117 vlineto
          -87 56 -51 80 vhcurveto
          52 -4 hlineto
          0 -27 217 callsubr
          99 88 47 40 49 52 20 52 rlinecurve
          2 5 3 5 4 vvcurveto
          7 -3 3 -4 2 vhcurveto
          -11 6 -5 2 -2 1 -4 -2 rlinecurve
          -4 -1 -1 -5 -4 -7 rrcurveto
          -253 119 rmoveto
          18 2 16 6 13 vhcurveto
          214 -219 rlineto
          -26 -14 -28 -16 -39 hhcurveto
          -44 hlineto
          204 callgsubr
          -113 394 -99 callgsubr
          377 222 callsubr
        </CharString>
        <CharString name="dvB_RA">
          -6 250 86 rmoveto
          0 -25 217 callsubr
          97 88 rlineto
          36 32 32 36 0 vvcurveto
          4 -117 hlineto
          -9 4 -3 7 vhcurveto
          26 -19 callsubr
          560 vlineto
          6 3 3 7 -103 callgsubr
          -495 -88 callsubr
          343 5 callsubr
          -345 vlineto
          -7 -1 -7 -1 -7 vhcurveto
          -207 214 rlineto
          208 callsubr
          -117 vlineto
          -87 56 -51 80 vhcurveto
          50 hlineto
          -139 254 rmoveto
          467 callsubr
          -44 hlineto
          204 callgsubr
          endchar
        </CharString>
        <CharString name="dvB_SA">
          400 758 334 rmoveto
          -6 -3 -3 callsubr
          3 -3 -6 hvcurveto
          -550 -442 218 callgsubr
          -261 31 callgsubr
          501 -73 callgsubr
          -83 -38 callsubr
          83 53 51 89 1 hvcurveto
          125 -217 rlineto
          -6 4 3 -76 callsubr
          -150 258 rlineto
          308 callsubr
          -259 vlineto
          -9 4 -3 7 -6 callgsubr
        </CharString>
        <CharString name="dvB_SHA">
          429 311 612 rmoveto
          7 -4 4 -9 vhcurveto
          -300 -88 callsubr
          300 hlineto
          9 163 callsubr
          -103 -463 218 callgsubr
          127 317 rmoveto
          60 callgsubr
          51 vlineto
          60 24 23 59 59 24 -24 -59 vhcurveto
          -89 vlineto
          -72 -39 -23 -51 vhcurveto
          -140 hlineto
          -9 451 callsubr
          -73 vlineto
          -11 -1 -10 -2 -9 vhcurveto
          -215 221 374 callgsubr
          8 30 hhcurveto
          217 callgsubr
          -53 86 vhcurveto
          53 hlineto
          83 52 51 88 1 hvcurveto
          144 -216 252 callsubr
          -3 3 hvcurveto
          -170 253 rlineto
          93 hlineto
          84 52 43 95 hvcurveto
          89 vlineto
          86 -46 39 -84 -85 -46 -39 -86 vhcurveto
          422 125 289 callsubr
          -587 vlineto
          -84 callgsubr
          endchar
        </CharString>
        <CharString name="dvB_TA">
          289 208 130 218 callgsubr
          -261 31 callgsubr
          639 256 callsubr
          -47 -38 callsubr
          41 35 13 23 24 hvcurveto
          -86 6 56 -37 76 hhcurveto
          -13 callsubr
          137 124 callsubr
          143 -97 callgsubr
          -349 202 callsubr
          560 vlineto
          6 3 3 7 -103 callgsubr
          endchar
        </CharString>
        <CharString name="dvB_VA">
          279 208 130 218 callgsubr
          -261 31 callgsubr
          630 319 callsubr
          109 callgsubr
          -53 hlineto
          -88 -54 -53 -88 hvcurveto
          -110 -38 callsubr
          57 42 24 44 20 hvcurveto
          -40 24 42 -23 56 hhcurveto
          92 callsubr
          -106 callgsubr
          -9 vhcurveto
          endchar
        </CharString>
        <CharString name="dvB_YA">
          355 712 -91 callsubr
          -504 -442 218 callgsubr
          -261 31 callgsubr
          421 396 callsubr
          -4 vlineto
          -2 vlineto
          -25 -38 callsubr
          61 46 28 50 20 hvcurveto
          -38 26 45 -23 59 hhcurveto
          -43 callgsubr
          7 vhcurveto
          26 -19 callsubr
          560 vlineto
          6 3 3 7 -103 callgsubr
          endchar
        </CharString>
        <CharString name="dvC">
          -167 438 114 callsubr
          -440 -88 callsubr
          323 -476 rmoveto
          66 36 35 28 23 hvcurveto
          4 4 3 5 4 vvcurveto
          5 -2 3 -4 3 574 callgsubr
          -5 -5 -5 -5 hvcurveto
          -25 -25 -21 -20 -47 hhcurveto
          -70 393 callgsubr
          44 vlineto
          63 37 callgsubr
          512 callgsubr
          -34 -44 vvcurveto
          -45 vlineto
          -88 55 -52 86 vhcurveto
          endchar
        </CharString>
        <CharString name="dvCA">
          66 151 386 rmoveto
          303 callgsubr
          73 hlineto
          50 33 16 32 16 hvcurveto
          4 -141 hlineto
          -9 4 -3 7 vhcurveto
          26 127 callsubr
          -567 -88 callsubr
          416 421 callgsubr
          -63 vhcurveto
          -73 393 callgsubr
          44 vlineto
          63 37 callgsubr
          hlineto
          endchar
        </CharString>
        <CharString name="dvCH">
          84 -2 623 192 callsubr
          173 vlineto
          83 -42 42 -83 vhcurveto
          -39 143 callsubr
          378 hlineto
          9 1 3 3 8 vvcurveto
          144 callsubr
          endchar
        </CharString>
        <CharString name="dvCHA">
          84 344 99 callgsubr
          -385 190 192 callsubr
          127 vlineto
          47 -14 34 -27 20 vhcurveto
          9 9 5 14 18 vvcurveto
          122 vlineto
          5 3 3 8 vhcurveto
          91 hlineto
          9 1 3 3 8 vvcurveto
          144 callsubr
          endchar
        </CharString>
        <CharString name="dvCH_R">
          84 322 -132 rmoveto
          7 -5 -4 4 -9 hhcurveto
          -22 hlineto
          -77 callgsubr
          -68 695 -12 callgsubr
        </CharString>
        <CharString name="dvCH_RA">
          84 344 433 -12 callgsubr
        </CharString>
        <CharString name="dvCH_R_YA">
          571 928 247 rmoveto
          -66 -41 -46 -73 vhcurveto
          -54 549 callsubr
          69 -42 40 -88 hvcurveto
          -326 143 callsubr
          714 -97 callgsubr
          -930 51 22 callgsubr
          52 hlineto
          -104 -137 -3 callgsubr
          -104 137 rlineto
          18 hlineto
          87 51 58 81 hvcurveto
          173 vlineto
          35 -7 28 -15 20 vhcurveto
          185 hlineto
          55 27 -18 -49 -52 -26 -22 -56 hvcurveto
          -56 hlineto
          339 callgsubr
          -38 vlineto
          -98 53 -58 101 vhcurveto
          57 459 callsubr
          -134 hlineto
          -9 4 -3 7 vhcurveto
          26 -19 callsubr
          560 vlineto
          6 3 -20 callgsubr
        </CharString>
        <CharString name="dvCH_YA">
          571 928 242 rmoveto
          -67 -41 -46 -74 vhcurveto
          -53 549 callsubr
          70 -43 41 -87 hvcurveto
          -326 hlineto
          339 callgsubr
          -21 vlineto
          -7 4 -5 9 vhcurveto
          37 hlineto
          56 24 -24 -57 hvcurveto
          -164 vlineto
          -64 -33 -36 -64 vhcurveto
          -151 hlineto
          -63 -25 27 63 hvcurveto
          42 vlineto
          56 25 29 59 vhcurveto
          39 hlineto
          9 3 5 6 -28 callsubr
          -41 224 callsubr
          62 567 callsubr
          57 vhcurveto
          713 5 callsubr
          -930 51 192 callsubr
          170 vlineto
          34 -7 27 -14 20 vhcurveto
          184 hlineto
          55 27 -18 -50 -52 -26 -22 -56 hvcurveto
          -56 hlineto
          -10 158 callgsubr
          -38 vlineto
          -98 53 -58 101 vhcurveto
          57 hlineto
          52 41 19 35 18 hvcurveto
          4 -128 hlineto
          -9 4 -3 7 vhcurveto
          26 -19 callsubr
          560 vlineto
          6 3 -20 callgsubr
        </CharString>
        <CharString name="dvC_CA">
          371 -2 -91 callgsubr
          720 421 callgsubr
          -62 vhcurveto
          -73 hlineto
          -64 -34 35 63 hvcurveto
          44 vlineto
          63 33 36 59 vhcurveto
          65 3 callsubr
          -248 -50 callgsubr
          89 -4 hlineto
          -32 -18 -14 -34 -44 vvcurveto
          -45 vlineto
          -17 2 -16 4 -15 vhcurveto
          -2 -2 rlineto
          -26 -25 -21 -20 -47 hhcurveto
          -70 393 callgsubr
          44 vlineto
          63 32 36 60 vhcurveto
          24 hlineto
          9 -7 callgsubr
          -236 325 callsubr
          74 hlineto
          57 35 26 25 23 hvcurveto
          -33 24 40 -18 51 hhcurveto
          73 hlineto
          50 33 16 32 16 hvcurveto
          4 -141 hlineto
          -9 5 -98 callgsubr
          8 4 -104 callgsubr
          -4 4 -8 vhcurveto
          endchar
        </CharString>
        <CharString name="dvC_CHA">
          425 685 99 callgsubr
          -726 190 -99 callgsubr
          456 406 callsubr
          -11 94 callsubr
          -26 vlineto
          -25 -25 -21 -20 -47 hhcurveto
          -73 393 callgsubr
          44 vlineto
          63 37 callgsubr
          512 callgsubr
          -34 -44 vvcurveto
          -45 vlineto
          -88 55 -52 86 vhcurveto
          77 hlineto
          43 31 15 18 22 hvcurveto
          -63 12 46 -32 73 hhcurveto
          160 28 callsubr
        </CharString>
        <CharString name="dvC_CH_VA">
          416 679 466 -99 callgsubr
          38 hlineto
          56 23 -26 -57 hvcurveto
          -90 vlineto
          -64 -33 -35 -63 vhcurveto
          -152 hlineto
          -62 -26 27 62 hvcurveto
          10 vlineto
          57 26 29 58 vhcurveto
          40 hlineto
          8 4 4 7 hvcurveto
          21 152 callsubr
          -8 vhcurveto
          -42 hlineto
          -54 -28 28 55 hvcurveto
          29 567 callsubr
          57 vhcurveto
          215 -92 callgsubr
          -90 vlineto
          -8 -1 -7 -2 -6 vhcurveto
          3 -13 -15 2 -16 hhcurveto
          -141 -520 rmoveto
          -65 -25 28 61 42 21 31 56 hvcurveto
          135 hlineto
          25 23 5 10 20 hvcurveto
          -78 vlineto
          -61 -32 -38 -66 vhcurveto
          -671 677 -99 callgsubr
          451 -4 hlineto
          -27 -14 -10 -28 -42 vvcurveto
          -34 vlineto
          -50 18 -33 45 -15 vhcurveto
          -4 vlineto
          -44 -15 -19 -34 -56 vvcurveto
          -14 vlineto
          -17 2 -15 3 -14 vhcurveto
          -24 -25 -21 -19 -46 hhcurveto
          -74 393 callgsubr
          44 vlineto
          63 32 36 60 133 callsubr
          -274 325 callsubr
          78 hlineto
          54 34 23 24 23 hvcurveto
          11 -14 15 -11 17 -7 rrcurveto
          -24 -17 -16 -27 -44 vvcurveto
          -84 47 -45 85 vhcurveto
          104 hlineto
          85 54 56 87 hvcurveto
          115 vlineto
          19 26 11 34 40 vvcurveto
          80 vlineto
          49 -14 34 -29 20 vhcurveto
          8 9 5 14 17 vvcurveto
          89 vlineto
          5 2 3 8 vhcurveto
          94 hlineto
          9 1 3 3 8 vvcurveto
          144 callsubr
          endchar
        </CharString>
        <CharString name="dvC_MA">
          333 690 367 rmoveto
          -6 -2 -3 178 callsubr
          2 8 hvcurveto
          204 -19 callgsubr
          205 -97 callgsubr
          -692 -89 callgsubr
          411 -92 callgsubr
          -312 vlineto
          -64 -34 -34 -64 vhcurveto
          -70 hlineto
          -63 -34 34 64 hvcurveto
          41 vlineto
          62 32 37 60 vhcurveto
          64 388 callgsubr
          5 -9 vhcurveto
          -276 hlineto
          -9 -3 -5 -7 hvcurveto
          -21 vlineto
          -8 3 -3 9 vhcurveto
          117 -4 hlineto
          -31 -19 -14 -34 -44 vvcurveto
          -41 vlineto
          -89 55 -51 86 vhcurveto
          78 hlineto
          87 55 51 89 hvcurveto
          48 -19 callgsubr
          204 5 callsubr
          -294 vlineto
          -9 4 -3 7 vhcurveto
          26 -19 callsubr
          560 vlineto
          6 3 3 7 -103 callgsubr
          endchar
        </CharString>
</ttFont>
